<?xml version="1.0" encoding="UTF-8"?>
<svg id="Calque_2" data-name="Calque 2" xmlns="http://www.w3.org/2000/svg" viewBox="0 0 396.54 346.72">
  <defs>
    <style>
      .cls-1 {
        opacity: .1;
      }

      .cls-2 {
        fill: #ebebeb;
      }

      .cls-3 {
        fill: #f0f0f0;
      }

      .cls-4 {
        fill: #ebb376;
      }

      .cls-5 {
        fill: #e6e6e6;
      }

      .cls-6 {
        fill: #f5f5f5;
      }

      .cls-7 {
        fill: #ff5652;
      }

      .cls-8, .cls-9, .cls-10, .cls-11, .cls-12, .cls-13, .cls-14, .cls-15 {
        fill: #fff;
      }

      .cls-16 {
        fill: #ff8b7b;
      }

      .cls-17 {
        fill: #e0e0e0;
      }

      .cls-18, .cls-19 {
        fill: #407bff;
      }

      .cls-20 {
        fill: #263238;
      }

      .cls-9, .cls-21, .cls-22 {
        opacity: .2;
      }

      .cls-23, .cls-24, .cls-14 {
        opacity: .3;
      }

      .cls-25, .cls-19, .cls-15 {
        opacity: .4;
      }

      .cls-26, .cls-10 {
        opacity: .6;
      }

      .cls-27 {
        opacity: .5;
      }

      .cls-24, .cls-22 {
        isolation: isolate;
      }

      .cls-11 {
        opacity: .9;
      }

      .cls-12 {
        opacity: .8;
      }

      .cls-13 {
        opacity: .7;
      }
    </style>
  </defs>
  <g id="Background_Complete" data-name="Background Complete">
    <rect class="cls-2" x="271.67" y="320.92" width="8.69" height=".25"/>
    <rect class="cls-2" x="53.7" y="310.6" width="6.33" height=".25"/>
    <g>
      <g>
        <polygon class="cls-3" points="396.54 207.41 392.15 303.07 387.21 303.07 387.34 299.73 325.54 299.73 325.67 303.07 320.72 303.07 316.54 207.41 396.54 207.41"/>
        <polygon class="cls-8" points="387.52 294.63 325.35 294.63 322.28 213.2 390.57 213.2 387.52 294.63"/>
        <polygon class="cls-2" points="387.77 236.7 325.71 236.7 325.03 217.13 388.45 217.13 387.77 236.7"/>
        <polygon class="cls-2" points="385.58 292.2 327.5 292.2 325.65 239.13 387.44 239.13 385.58 292.2"/>
        <path class="cls-8" d="M359.44,225.97c0,1.56-1.27,2.83-2.83,2.83s-2.83-1.27-2.83-2.83,1.27-2.83,2.83-2.83,2.83,1.27,2.83,2.83Z"/>
        <path class="cls-8" d="M332.43,268.94h0c-1.13,0-2.05-.92-2.05-2.05v-14.13c0-1.13,.92-2.05,2.05-2.05h0c1.13,0,2.05,.92,2.05,2.05v14.13c0,1.13-.92,2.05-2.05,2.05Z"/>
      </g>
      <g>
        <path class="cls-3" d="M349.79,197.89c0,3.73,.59,6.15,1.57,7.7,.74,1.17,2.07,1.82,3.46,1.82h5.41c1.38,0,2.71-.66,3.46-1.82,.99-1.55,1.57-3.96,1.57-7.7,0-5.42-2.36-9.75-3.13-13.22-.28-1.25,.65-5.07,.65-5.07h-10.5s.92,3.82,.65,5.07c-.77,3.46-3.13,7.8-3.13,13.22Z"/>
        <g>
          <g>
            <path class="cls-2" d="M361.03,153.45s-1.77,.44-2.8,1.81,.75,4.6,.75,4.6c0,0,1.68,1.72,3.77,1.2l2.09-.51s-2.21-6.34-3.8-6.69v-.42Z"/>
            <g>
              <path class="cls-2" d="M369.28,154.97c-.28,2.75-2.6,5.85-5.06,5.61-2.46-.25-4.12-3.75-3.84-6.5,.28-2.75,2.28-2.65,4.74-2.4,2.46,.25,4.44,.54,4.16,3.3Z"/>
              <path class="cls-2" d="M362.34,152.83s1.57,1.82,5.54,1.68c0,0-6.77,2.87-5.54-1.68Z"/>
              <path class="cls-2" d="M364.08,152.6s2.2,.03,2.07,.93c0,0,1.83,.24,1.72-.56-.11-.8-3.79-.36-3.79-.36Z"/>
              <path class="cls-17" d="M362.34,152.83s1.57,1.82,5.54,1.68c0,0-6.77,2.87-5.54-1.68Z"/>
              <path class="cls-17" d="M364.08,152.6s2.2,.03,2.07,.93c0,0,1.83,.24,1.72-.56-.11-.8-3.79-.36-3.79-.36Z"/>
            </g>
            <path class="cls-2" d="M359.99,160.66c.53,1.39,1.98,2.33,3.47,2.43,1.49,.1,2.97-.56,4.04-1.6s1.75-2.44,2.11-3.88c.1-.37,.3-1.32-.17-1.56-.43-.22-.84,.37-1.1,.62-.77,.74-1.57,1.43-2.48,2-.88,.55-1.83,1-2.82,1.34-.28,.09-2.96,.9-3.05,.65Z"/>
            <path class="cls-2" d="M371.4,157.21c.25,1.19-.17,2.49-1.06,3.31-.59,.54-1.34,.86-2.08,1.13-.52,.19-1.17,.35-1.57-.04-.43-.41-.25-1.13-.03-1.68,.34-.85,.71-1.7,1.09-2.53,.32-.68,.66-1.87,1.19-2.4,.5-.5,1-.05,1.52,.48,.46,.47,.8,1.08,.94,1.73Z"/>
            <path class="cls-17" d="M360.9,159.28c-.93-.22-1.69-1.02-1.87-1.95-.13-.69,.18-2.33,1.06-2.38,.09,1.52,.16,2.9,.81,4.33Z"/>
            <path class="cls-17" d="M367.57,159.76c.93-.09,1.8-.67,2.23-1.49,.24-.46,.52-2.97-.41-2.07-.3,.29-.47,1.39-.67,1.81-.31,.63-.7,1.22-1.15,1.75Z"/>
            <path class="cls-17" d="M363.9,160.65c.57,.71,1.66,.94,2.47,.53-.18,.46-1.77,.58-2.26,.63-1.29,.13-1.82-.53-2.91-1.25,0,0,1.82,.64,2.7,.09Z"/>
          </g>
          <polygon class="cls-5" points="356.07 204.44 359.1 173.83 363.12 162.97 363.81 163.22 359.82 174.04 356.65 205.27 356.07 204.44"/>
          <g>
            <path class="cls-5" d="M359.79,173.76l-.66,.33c-.44-.86-.77-1.95-1.16-3.2-.6-1.94-1.28-4.14-2.55-6.21l.63-.39c1.32,2.15,2.02,4.4,2.63,6.38,.38,1.22,.71,2.28,1.11,3.09Z"/>
            <path class="cls-3" d="M361.42,169.75c1.03-.07,2.03-.53,2.75-1.27,.82-.83,1.27-1.96,1.69-3.06-1.35,.14-2.6-.74-3.95-.84-1.08-.08-2.18,.38-2.88,1.19-.91,1.06-1.45,2.35-.94,3.01,.42,.54,1.94,1.05,3.32,.96Z"/>
            <path class="cls-3" d="M350.59,166.44c.99-.83,3.12-1.16,4.33-.7,1.21,.46,2.11,1.53,2.36,2.63-.48,.73-1.45,1.01-2.32,.91-.87-.1-1.66-.51-2.44-.92-.77-.41-1.57-.82-2.44-.92l.5-1.01Z"/>
            <path class="cls-3" d="M357.27,167.02c-1.76,.2-3.33,.55-4.93-1.45-1.07-1.34-.73-3.36-.65-4.96,1.52,.33,4.98,2.02,5.75,2.43,.77,.41,1.42,1.08,1.55,1.88,.13,.79-.41,1.67-1.28,1.82-.03-.04-.44,.29-.44,.29Z"/>
          </g>
        </g>
        <path class="cls-8" d="M352.24,190.83c-.71,1.99-1.37,4.16-1.15,6.28,.04,.4,.17,.86,.46,.93,.27,.07,.54-.27,.63-.63,.1-.37,.07-.76,.07-1.14,0-3.28,1.78-6.05,2.12-9.25,.1-.91-.14-3.78-.67-1.67-.48,1.88-.81,3.64-1.46,5.48Z"/>
      </g>
    </g>
    <g>
      <path class="cls-2" d="M31.5,260.57s2.91-32.21-9.89-47.92c-12.8-15.71,9.99-1.41,14.03,14.26,0,0,.76-28.97-12.02-47.75-12.77-18.78,9-4.72,12.79,15.75,0,0,.72-25.85-5.66-39.56-6.38-13.71,3.14-5.55,7.34,3.02,4.21,8.57,2.11,31.3,2.11,31.3,0,0,4.47-42.1,12.96-39.82,8.49,2.28-9.15,31.64-10.56,45.98,0,0,7.72-20,15.41-16.96,7.69,3.04-10.71,7.24-16.39,36.35l-1.66,13.53s6.98-19.66,13.36-14.49c6.38,5.16-15.55,18.06-18.04,46.87l-3.79-.56Z"/>
      <path class="cls-3" d="M32.88,262.24s-2.73-39.83,13.49-58.81c16.21-18.97-12.29-2.06-17.69,17.14,0,0-.16-35.77,16.11-58.53,16.26-22.76-10.98-6.12-16.21,19.03,0,0-.2-31.92,8.04-48.63,8.24-16.71-3.72-6.95-9.14,3.49-5.42,10.44-3.45,38.55-3.45,38.55,0,0-4.39-52.09-14.93-49.55-10.53,2.54,10.44,39.34,11.8,57.07,0,0-8.99-24.92-18.56-21.42-9.57,3.5,13.02,9.27,19.25,45.38l1.69,16.75s-8.08-24.48-16.09-18.31c-8.01,6.17,18.7,22.78,21,58.41l4.69-.57Z"/>
      <path class="cls-2" d="M58.08,282.1c0,10.93-11.85,19.8-26.47,19.8s-26.48-8.87-26.48-19.8c0-4.93,2.4-9.42,6.38-12.88l-3.13-13.25H54.83l-3.13,13.25c3.98,3.46,6.38,7.95,6.38,12.88Z"/>
    </g>
  </g>
  <g id="Shadow">
    <ellipse id="_Path_" data-name="&amp;lt;Path&amp;gt;" class="cls-6" cx="199.14" cy="335.4" rx="193.89" ry="11.32"/>
  </g>
  <g id="Plants">
    <g>
      <g>
        <path class="cls-18" d="M86.07,250.13s8.96,14.9,13.25,34.2c9.23,41.51,9.23,49.92,9.23,49.92l7.71,.25s-15.25-75.65-27.63-86.82c-12.38-11.18-2.57,2.45-2.57,2.45Z"/>
        <path class="cls-25" d="M86.07,250.13s8.96,14.9,13.25,34.2c9.23,41.51,9.23,49.92,9.23,49.92l7.71,.25s-15.25-75.65-27.63-86.82c-12.38-11.18-2.57,2.45-2.57,2.45Z"/>
        <g>
          <path class="cls-18" d="M83.2,241.42c2.79-2.2,3.25-1.86,6.19-2.71-2.4-1.81-4.84-4.76-10.2-5.51-4.88-.4-8.76,2.61-10.44,6.75-.12,.31-.38,.56-.71,.67h-.02c-.79,.27-1.65-.23-1.67-.99-.1-3.33,1.78-6.69,4.88-8.5-4.05-.83-9.02-1.32-12.82,.19-4.16,1.65-7.78,8.83-6.92,13.1,.07,.37-.14,.74-.52,.88,0,0-.02,0-.02,0-.47,.17-1-.05-1.16-.49-.38-1.08-1.21-2.99-.95-5.3,.23-2.05,1.09-4.15,3.11-5.09-4.72-1.71-13.79,4.66-13.28,4.8-1.3,3.28-.11,7.52,.59,9.49,.25,.7-.09,1.45-.8,1.81l-.03,.02c-.91,.45-2.05,.07-2.41-.81-.81-1.98-1.91-5.2-1.48-7.22-2.04,.16-3.42,2.38-4.43,4-3.21,5.14-1.39,11.08-.47,16.6,2.78,2.88,6.82,6.3,12.91,8.06,3.7,1.07,7.73,.71,11.22-.84l.09-.04c-2.66-2.24-5.54-4.83-8.24-7.14-.52-.44-.58-1.17-.14-1.68,0,0,.01-.01,.02-.02,.46-.53,1.31-.63,1.91-.22,3.82,2.63,6.46,5.18,10.43,7.82,3.48-.62,11.49-5.42,10.72-5.59-3.49-2.13-9.86-5.01-12.39-8.19-.38-.47-.23-1.13,.31-1.45h0c.41-.24,.94-.2,1.31,.09,4.29,3.31,8.52,5.88,13.82,7.74,4.94-1.92,8.61-3.47,10.57-5.82-2.79-1.84-7.04-4.62-10.28-6.75-1.02-.67-.14-2.15,1.02-1.71,.02,0,.04,.01,.06,.02,4.75,1.89,9.02,6.12,14.07,5.71,0,0,7.4-1.63,7.38-4.89-5.02-.11-12.42-5.85-11.18-6.83Z"/>
          <path class="cls-9" d="M83.2,241.42c2.79-2.2,3.25-1.86,6.19-2.71-2.4-1.81-4.84-4.76-10.2-5.51-4.88-.4-8.76,2.61-10.44,6.75-.12,.31-.38,.56-.71,.67h-.02c-.79,.27-1.65-.23-1.67-.99-.1-3.33,1.78-6.69,4.88-8.5-4.05-.83-9.02-1.32-12.82,.19-4.16,1.65-7.78,8.83-6.92,13.1,.07,.37-.14,.74-.52,.88,0,0-.02,0-.02,0-.47,.17-1-.05-1.16-.49-.38-1.08-1.21-2.99-.95-5.3,.23-2.05,1.09-4.15,3.11-5.09-4.72-1.71-13.79,4.66-13.28,4.8-1.3,3.28-.11,7.52,.59,9.49,.25,.7-.09,1.45-.8,1.81l-.03,.02c-.91,.45-2.05,.07-2.41-.81-.81-1.98-1.91-5.2-1.48-7.22-2.04,.16-3.42,2.38-4.43,4-3.21,5.14-1.39,11.08-.47,16.6,2.78,2.88,6.82,6.3,12.91,8.06,3.7,1.07,7.73,.71,11.22-.84l.09-.04c-2.66-2.24-5.54-4.83-8.24-7.14-.52-.44-.58-1.17-.14-1.68,0,0,.01-.01,.02-.02,.46-.53,1.31-.63,1.91-.22,3.82,2.63,6.46,5.18,10.43,7.82,3.48-.62,11.49-5.42,10.72-5.59-3.49-2.13-9.86-5.01-12.39-8.19-.38-.47-.23-1.13,.31-1.45h0c.41-.24,.94-.2,1.31,.09,4.29,3.31,8.52,5.88,13.82,7.74,4.94-1.92,8.61-3.47,10.57-5.82-2.79-1.84-7.04-4.62-10.28-6.75-1.02-.67-.14-2.15,1.02-1.71,.02,0,.04,.01,.06,.02,4.75,1.89,9.02,6.12,14.07,5.71,0,0,7.4-1.63,7.38-4.89-5.02-.11-12.42-5.85-11.18-6.83Z"/>
        </g>
      </g>
      <g>
        <g>
          <path class="cls-18" d="M131.67,334.55h-17.9c-3.98-5.87-7.77-13.5-8.69-22.16-2.15-20.02,11.71-37.92,11.71-37.92,0,0,12.45,10.43,17.56,25.77,.92,2.78,1.62,5.72,1.94,8.78,1.03,9.57-1.6,18.65-4.63,25.53Z"/>
          <path class="cls-24" d="M131.67,334.55h-17.9c-3.98-5.87-7.77-13.5-8.69-22.16-2.15-20.02,11.71-37.92,11.71-37.92,0,0,12.45,10.43,17.56,25.77,.92,2.78,1.62,5.72,1.94,8.78,1.03,9.57-1.6,18.65-4.63,25.53Z"/>
        </g>
        <g>
          <path class="cls-18" d="M154.26,323.64c-2.55,4.38-5.88,7.98-9.4,10.91h-22.29c-.27-7.54,.64-17.72,5.79-26.55,1.7-2.92,3.74-5.49,5.99-7.76,10.32-10.56,24.38-14.32,24.38-14.32,0,0,5.16,21.2-4.47,37.71Z"/>
          <g class="cls-25">
            <path class="cls-8" d="M154.26,323.64c-2.55,4.38-5.88,7.98-9.4,10.91h-22.29c-.27-7.54,.64-17.72,5.79-26.55,1.7-2.92,3.74-5.49,5.99-7.76,10.32-10.56,24.38-14.32,24.38-14.32,0,0,5.16,21.2-4.47,37.71Z"/>
          </g>
        </g>
      </g>
      <g>
        <path class="cls-18" d="M39.93,312.96c-2.79,3.97-3.49,3.64-6.95,5.76,3.69,1.79,7.82,5.16,14.92,4.51,6.35-.98,10.26-6.44,10.95-12.79,.05-.47,.29-.9,.68-1.17,0,0,.02-.01,.02-.02,.91-.62,2.18-.18,2.47,.88,1.28,4.64,.06,9.96-3.25,13.48,5.45-.11,11.96-.99,16.28-4.31,4.73-3.64,6.84-14.87,4.26-20.59-.22-.5-.08-1.08,.36-1.4,0,0,.02-.01,.03-.02,.54-.39,1.3-.25,1.65,.32,.86,1.39,2.58,3.82,3.05,7.14,.42,2.95,.06,6.18-2.19,8.13,6.62,.9,15.95-10.9,15.25-10.95,.51-5.01-2.48-10.6-4.06-13.14-.56-.9-.39-2.07,.39-2.8,.01-.01,.02-.02,.04-.03,1-.93,2.59-.75,3.36,.38,1.72,2.53,4.25,6.71,4.4,9.68,2.54-.86,3.53-4.43,4.25-7.01,2.3-8.24-2.1-16.01-5.18-23.47-4.54-3.17-10.89-6.69-19.26-7.25-5.09-.34-10.1,1.44-14,4.73l-.1,.08c4.18,2.31,8.74,5.03,12.99,7.42,.81,.46,1.14,1.46,.76,2.31,0,.01,0,.02-.01,.03-.4,.89-1.45,1.3-2.35,.91-5.79-2.49-10.04-5.23-16.01-7.7-4.21,1.97-12.76,11.24-11.71,11.24,5.19,1.89,14.31,3.92,18.64,7.59,.64,.54,.69,1.52,.11,2.13h0c-.44,.46-1.13,.57-1.7,.29-6.62-3.29-12.91-5.57-20.32-6.51-5.63,4.26-9.77,7.6-11.44,11.52,4.2,1.7,10.58,4.27,15.45,6.23,1.54,.62,.93,2.98-.71,2.72-.03,0-.05,0-.08-.01-6.71-1.16-13.63-5.74-19.92-3.58,0,0-8.86,4.62-7.7,9.2,6.43-1.42,17.87,4.29,16.62,6.06Z"/>
        <path class="cls-18" d="M92.7,267.23s15.04,21.93,19.09,42.63c4.06,20.71,4.64,24.71,4.64,24.71l9.13,.08s-16.41-58.05-30.28-70.45c-13.88-12.4-2.58,3.02-2.58,3.02Z"/>
        <path class="cls-1" d="M92.7,267.23s15.04,21.93,19.09,42.63c4.06,20.71,4.64,24.71,4.64,24.71l9.13,.08s-16.41-58.05-30.28-70.45c-13.88-12.4-2.58,3.02-2.58,3.02Z"/>
        <path class="cls-10" d="M39.93,312.96c-2.79,3.97-3.49,3.64-6.95,5.76,3.69,1.79,7.82,5.16,14.92,4.51,6.35-.98,10.26-6.44,10.95-12.79,.05-.47,.29-.9,.68-1.17,0,0,.02-.01,.02-.02,.91-.62,2.18-.18,2.47,.88,1.28,4.64,.06,9.96-3.25,13.48,5.45-.11,11.96-.99,16.28-4.31,4.73-3.64,6.84-14.87,4.26-20.59-.22-.5-.08-1.08,.36-1.4,0,0,.02-.01,.03-.02,.54-.39,1.3-.25,1.65,.32,.86,1.39,2.58,3.82,3.05,7.14,.42,2.95,.06,6.18-2.19,8.13,6.62,.9,15.95-10.9,15.25-10.95,.51-5.01-2.48-10.6-4.06-13.14-.56-.9-.39-2.07,.39-2.8,.01-.01,.02-.02,.04-.03,1-.93,2.59-.75,3.36,.38,1.72,2.53,4.25,6.71,4.4,9.68,2.54-.86,3.53-4.43,4.25-7.01,2.3-8.24-2.1-16.01-5.18-23.47-4.54-3.17-10.89-6.69-19.26-7.25-5.09-.34-10.1,1.44-14,4.73l-.1,.08c4.18,2.31,8.74,5.03,12.99,7.42,.81,.46,1.14,1.46,.76,2.31,0,.01,0,.02-.01,.03-.4,.89-1.45,1.3-2.35,.91-5.79-2.49-10.04-5.23-16.01-7.7-4.21,1.97-12.76,11.24-11.71,11.24,5.19,1.89,14.31,3.92,18.64,7.59,.64,.54,.69,1.52,.11,2.13h0c-.44,.46-1.13,.57-1.7,.29-6.62-3.29-12.91-5.57-20.32-6.51-5.63,4.26-9.77,7.6-11.44,11.52,4.2,1.7,10.58,4.27,15.45,6.23,1.54,.62,.93,2.98-.71,2.72-.03,0-.05,0-.08-.01-6.71-1.16-13.63-5.74-19.92-3.58,0,0-8.86,4.62-7.7,9.2,6.43-1.42,17.87,4.29,16.62,6.06Z"/>
      </g>
      <g>
        <g>
          <path class="cls-18" d="M289.09,287.53c.06,.2-1.07,.84,1.93,1.71,7.39,2.14,20.72,4.86,27.35-.71,9.45-7.96-7.09-11.07-4.2-16.03,2.9-4.96,19.37,3.7,24.67-3.09,5.29-6.79-7.83-8.43-6.28-12.21,1.55-3.78,13.7,4.58,20.09-2.43,6.39-7.02-6.36-5.55-3.64-8.44,2.72-2.89,20.98-13.22,15.73-17.81-5.25-4.59-22.77,6.58-27.76,7.01-4.98,.43-2.55-14.13-9.77-10.82-7.22,3.3-8.53,25.86-16.24,26.81-5.74,.71-.98-6.32-7.54-7.61-8.91-1.75-19.21,27.8-14.33,43.62Z"/>
          <g class="cls-23">
            <path class="cls-8" d="M289.09,287.53c.06,.2-1.07,.84,1.93,1.71,7.39,2.14,20.72,4.86,27.35-.71,9.45-7.96-7.09-11.07-4.2-16.03,2.9-4.96,19.37,3.7,24.67-3.09,5.29-6.79-7.83-8.43-6.28-12.21,1.55-3.78,13.7,4.58,20.09-2.43,6.39-7.02-6.36-5.55-3.64-8.44,2.72-2.89,20.98-13.22,15.73-17.81-5.25-4.59-22.77,6.58-27.76,7.01-4.98,.43-2.55-14.13-9.77-10.82-7.22,3.3-8.53,25.86-16.24,26.81-5.74,.71-.98-6.32-7.54-7.61-8.91-1.75-19.21,27.8-14.33,43.62Z"/>
          </g>
        </g>
        <g>
          <g>
            <g>
              <path class="cls-18" d="M277.03,312.59s-.03,0-.04-.01c-.26-.1-.39-.39-.29-.64,18.41-48.67,52.3-61.99,52.64-62.12,.26-.1,.55,.03,.64,.29s-.03,.55-.29,.64c-.34,.13-33.82,13.31-52.06,61.53-.09,.25-.36,.38-.61,.3Z"/>
              <path class="cls-18" d="M321.05,255.18c-.2-.06-.34-.23-.36-.44-.02-.28,.19-.52,.46-.54,.19-.01,4.83-.32,11.52,2.9,.25,.12,.35,.42,.23,.67-.12,.25-.42,.35-.67,.23-6.42-3.1-10.96-2.81-11.01-2.8-.06,0-.12,0-.18-.02Z"/>
              <path class="cls-18" d="M314.22,259.96c-.25-.07-.41-.33-.35-.59,3.56-15.21,15.25-24.91,15.37-25.01,.21-.17,.53-.14,.7,.07,.18,.21,.14,.53-.07,.7-.11,.09-11.54,9.6-15.03,24.46-.06,.27-.33,.44-.6,.37,0,0-.02,0-.03,0Z"/>
              <path class="cls-18" d="M302.47,270.7c-.12-.03-.23-.11-.3-.23-.14-.24-.05-.54,.19-.68,.08-.04,8.05-4.47,15.82,.67,.23,.15,.29,.46,.14,.69-.15,.23-.46,.29-.69,.14-7.26-4.8-14.7-.68-14.78-.63-.12,.07-.26,.08-.39,.05Z"/>
              <path class="cls-18" d="M295.78,278.56c-.18-.05-.32-.2-.35-.4-.06-.35-1.38-8.76,3.04-19.2,.11-.25,.39-.38,.66-.27,.25,.11,.37,.4,.27,.65-4.3,10.16-2.99,18.56-2.97,18.65,.04,.27-.14,.53-.41,.57-.08,.01-.15,0-.22-.01Z"/>
            </g>
            <g>
              <g>
                <path class="cls-18" d="M272.83,330.56c-.25-.07-.4-.33-.35-.58l2.62-13.44c8.96-44.64-13.99-82.11-14.23-82.48-.15-.23-.08-.54,.16-.69,.24-.15,.54-.07,.69,.16,.23,.38,23.4,38.17,14.36,83.21l-2.62,13.45c-.06,.27-.32,.44-.59,.39-.01,0-.02,0-.04,0Z"/>
                <path class="cls-18" d="M269.32,253.71s-.05-.02-.08-.03c-.04-.02-.09-.05-.13-.09l-.14-.1c-3.56-2.62-7.79-4.56-11.89-5.47-.28-.05-.44-.33-.38-.6,.06-.27,.33-.44,.6-.38,4.24,.94,8.59,2.94,12.27,5.64l.15,.11s.05,.04,.07,.06c.17,.14,.22,.39,.12,.59-.11,.22-.36,.33-.59,.27Z"/>
                <path class="cls-18" d="M272.21,260.45s-.02,0-.02,0c-.26-.09-.4-.37-.31-.63,4.37-12.75,.24-25.14,.2-25.26-.09-.26,.05-.55,.31-.63,.26-.09,.55,.05,.63,.31,.04,.13,4.28,12.82-.2,25.91-.09,.25-.36,.39-.61,.32Z"/>
                <path class="cls-18" d="M274.78,269.09c-.12-.03-.22-.11-.29-.22-.04-.06-3.77-6.12-11.44-5.97-.28,0-.5-.21-.51-.49,0-.28,.21-.5,.49-.51,8.27-.17,12.16,6.18,12.32,6.45,.14,.24,.06,.54-.17,.68-.12,.07-.27,.09-.4,.05Z"/>
                <path class="cls-18" d="M277.35,282.91c-.07-.02-.13-.05-.19-.11-.21-.18-.23-.5-.05-.71,.05-.06,4.98-5.76,6.52-15.35,.04-.27,.3-.46,.57-.41,.28,.03,.46,.3,.41,.57-1.59,9.89-6.55,15.61-6.76,15.85-.13,.15-.33,.2-.51,.15Z"/>
              </g>
              <g>
                <path class="cls-18" d="M278.36,293.16c-6.18-1.37-15.3-9.62-18.08-16.17-2.82-6.65,8.1-.31,7.96-5.02-.14-4.72-15.44-4.95-16.58-11.94-1.15-6.99,8.97-3,9.34-6.34,.37-3.34-10.64-5.3-12.49-12.88-1.85-7.58,6.77-1.5,5.95-4.65-.82-3.15-9.94-17.8-4.34-19.04,5.6-1.24,13.84,13.71,17.27,15.98,3.42,2.27,6.35-5.97,10.25-.74,3.91,5.23-4.02,22.02,1.17,25.74,3.86,2.77,4-5.76,8.44-2.53,7.77,5.66-6.38,38.15-8.89,37.59Z"/>
                <g class="cls-21">
                  <path class="cls-8" d="M278.36,293.16c-6.18-1.37-15.3-9.62-18.08-16.17-2.82-6.65,8.1-.31,7.96-5.02-.14-4.72-15.44-4.95-16.58-11.94-1.15-6.99,8.97-3,9.34-6.34,.37-3.34-10.64-5.3-12.49-12.88-1.85-7.58,6.77-1.5,5.95-4.65-.82-3.15-9.94-17.8-4.34-19.04,5.6-1.24,13.84,13.71,17.27,15.98,3.42,2.27,6.35-5.97,10.25-.74,3.91,5.23-4.02,22.02,1.17,25.74,3.86,2.77,4-5.76,8.44-2.53,7.77,5.66-6.38,38.15-8.89,37.59Z"/>
                </g>
              </g>
            </g>
          </g>
          <g>
            <g>
              <g>
                <path class="cls-18" d="M276.49,313.68s-.04-.01-.06-.02c-.25-.11-.37-.4-.26-.66,.03-.08,.37-1,.91-2.6,.82-2.39,2.49-7.4,4.37-14.21,.04-.12,.06-.2,.08-.29,2.1-7.61,3.84-15.19,5.2-22.54,1.27-6.86,2.19-13.6,2.76-20.04,.5-5.84,.7-11.45,.6-16.67,0-.01,0-.03,0-.05h0c-.02-.82-.04-1.64-.07-2.47-.03-.67-.06-1.34-.1-2.02-.1-1.75-.16-3.42-.19-4.96-.08-3.39-.04-6.75,.11-9.97,.08-1.94,.21-3.83,.37-5.63,.61-7.03,1.76-13.83,3.44-20.23,.68-2.61,1.47-5.18,2.33-7.65,.94-2.69,1.99-5.25,3.11-7.61,.09-.18,.16-.34,.24-.5l.11-.23c.04-.12,.11-.22,.23-.28,.24-.14,.54-.06,.68,.18,.09,.16,.08,.36,0,.52h0s-.12,.24-.12,.24c-.08,.17-.16,.34-.24,.51-1.1,2.32-2.13,4.85-3.06,7.5-.85,2.44-1.63,4.99-2.3,7.57-1.66,6.34-2.81,13.09-3.41,20.06-.16,1.78-.28,3.66-.36,5.58-.15,3.2-.18,6.53-.11,9.91,.03,1.53,.09,3.19,.19,4.93,.04,.68,.07,1.36,.1,2.04,.03,.83,.06,1.65,.07,2.47,0,.02,0,.03,0,.05h0c.1,5.26-.1,10.91-.6,16.79-.57,6.48-1.5,13.25-2.77,20.14-1.36,7.38-3.11,14.99-5.21,22.61-.03,.11-.05,.22-.1,.34-1.88,6.8-3.55,11.84-4.38,14.23-.55,1.63-.9,2.59-.94,2.67-.1,.23-.36,.35-.6,.28Z"/>
                <g>
                  <path class="cls-18" d="M299.83,175.63s.02-.02,.03-.02t.03-.02c1.03-.55,2.12-.96,3.24-1.26,1.22-.31,2.49-.48,3.76-.47"/>
                  <path class="cls-18" d="M299.69,176.11c-.06-.02-.12-.05-.18-.09-.21-.18-.24-.49-.07-.7,.04-.05,.09-.09,.14-.12,.02-.01,.04-.02,.06-.03h0c1.04-.55,2.16-.99,3.34-1.31,1.32-.33,2.63-.49,3.89-.48,.27,0,.5,.23,.5,.5,0,.28-.23,.5-.5,.5-1.18-.01-2.4,.14-3.63,.45-1.1,.29-2.15,.7-3.12,1.22,0,0,0,0-.01,0-.12,.08-.27,.1-.41,.06Z"/>
                </g>
                <path class="cls-18" d="M296.3,184.32c-.11-.03-.21-.1-.27-.2l-2.46-3.62c-.16-.23-.1-.54,.13-.69,.23-.15,.54-.1,.69,.13l2.46,3.62c.16,.23,.1,.54-.13,.69-.13,.09-.28,.11-.42,.07Z"/>
                <path class="cls-18" d="M290.07,227.66c-.26-.07-.4-.38-.34-.64h0c.41-.93,.88-1.72,1.41-2.44,.76-1.07,1.69-2.02,2.75-2.83,.77-.59,1.63-1.11,2.54-1.53,.25-.12,.55,0,.66,.24,.12,.25,0,.55-.24,.66-.85,.39-1.64,.87-2.35,1.42-.98,.75-1.84,1.63-2.55,2.63-.5,.67-.93,1.4-1.28,2.17-.07,.27-.32,.39-.59,.33,0,0-.01,0-.02,0Z"/>
                <path class="cls-18" d="M290.46,237.1c-.18-.05-.33-.21-.36-.41-.32-2.28-1.64-4.41-3.54-5.71-.23-.16-.29-.47-.13-.69,.16-.23,.47-.29,.69-.13,2.13,1.45,3.61,3.85,3.97,6.4,.04,.27-.15,.53-.43,.56-.07,.01-.14,0-.21-.01Z"/>
                <g>
                  <path class="cls-18" d="M285.43,281.97c-.75-1.53-.37-6.56-.17-9.26,.05-.65,.09-1.2,.11-1.6"/>
                  <path class="cls-18" d="M285.29,282.45c-.13-.04-.25-.13-.31-.26-.74-1.52-.51-5.71-.22-9.52,.05-.64,.09-1.19,.11-1.59,.01-.28,.25-.49,.52-.47,.28,0,.49,.25,.48,.52-.02,.4-.06,.96-.11,1.61-.18,2.47-.56,7.6,.13,9.01,.12,.25,.02,.55-.23,.67-.12,.06-.24,.06-.36,.03Z"/>
                </g>
              </g>
              <path class="cls-18" d="M290.19,217.72c-.25-.07-.4-.33-.35-.58,.17-.8,4.28-19.67,16.64-24.13,.26-.09,.55,.04,.64,.3,.09,.26-.04,.55-.3,.64-11.83,4.27-15.96,23.2-16,23.39-.06,.27-.32,.44-.59,.39-.01,0-.02,0-.04,0Z"/>
              <g>
                <path class="cls-18" d="M279.41,258.24c-2.47,4.15,5.13,15.01,5.13,15.01,0,0,13.17,1.49,15.63-2.65,2.47-4.15,1-12.26-4.73-15.67-5.73-3.41-13.56-.83-16.03,3.32Z"/>
                <path class="cls-18" d="M281.84,201.29c.07,5.05,8.4,10.64,8.4,10.64,0,0,8.16-5.83,8.08-10.89-.08-5.05-3.86-11.52-8.41-11.45-4.55,.07-8.14,6.64-8.07,11.69Z"/>
                <path class="cls-18" d="M302.25,222.35c-1.43,.61-2.9,1.22-4.46,1.27-1.55,.04-3.23-.62-3.94-2-.89-1.71-.03-3.82,1.16-5.34,2.35-3.01,9.39-7.38,13.34-4.68,5.7,3.89-2.8,9.35-6.1,10.75Z"/>
                <path class="cls-18" d="M287.33,227.86c.58,1.22,1.14,2.72,.39,3.84-.66,1-2.13,1.17-3.23,.72-1.11-.45-1.94-1.37-2.74-2.27-1.84-2.07-5.6-6.4-1.98-8.71,3.77-2.41,6.34,3.86,7.55,6.42Z"/>
                <path class="cls-18" d="M316.24,189.4c.92,.33,1.73,1.2,1.66,2.18-.08,1.14-1.22,1.88-2.27,2.35-2.61,1.16-10.32,4.14-10.73-.63-.39-4.5,8.49-4.93,11.33-3.9Z"/>
                <path class="cls-18" d="M307.56,171.94c1.33,.46,2.81,.29,4.16,.71,1.35,.42,2.6,1.88,1.97,3.15-.58,1.17-2.21,1.21-3.5,.98-2.19-.39-4.32-1.06-6.34-2-.47-.22-.97-.49-1.15-.98-.36-.95,.79-1.83,1.8-1.89,1.01-.06,2.05,.29,3.02,0l.04,.02Z"/>
                <path class="cls-18" d="M291.97,178.1c-1.38-.29-2.56-1.19-3.93-1.53-1.37-.33-3.2,.28-3.31,1.68-.1,1.3,1.28,2.18,2.49,2.64,2.07,.8,4.25,1.32,6.46,1.54,.51,.05,1.08,.07,1.49-.25,.79-.63,.26-1.97-.57-2.54-.83-.57-1.91-.8-2.6-1.55h-.04Z"/>
              </g>
            </g>
            <path class="cls-18" d="M298.94,177.32s-.02,0-.03-.01c-.26-.09-.39-.38-.3-.64,.94-2.58,1.39-5.18,.94-5.47-.23-.15-.3-.46-.16-.69,.15-.23,.45-.31,.69-.16,1.4,.89,.09,4.95-.53,6.66-.09,.25-.36,.38-.61,.31Z"/>
            <path class="cls-18" d="M301.61,171.41c-.38-2.06-.8-4.21-2.16-5.81-1.35-1.59-3.97-2.32-5.56-.97-1.78,1.51-1.12,4.63,.7,6.1s4.29,1.76,6.61,1.99c.1-.33,.2-.66,.3-.99l.11-.33Z"/>
          </g>
        </g>
        <g>
          <g>
            <g>
              <path class="cls-18" d="M123.19,312.18s-.03,0-.04,0c-.27,.02-.52-.18-.54-.46-4.03-51.88,20.98-78.34,21.24-78.6,.19-.2,.51-.2,.71-.01,.2,.19,.2,.51,.01,.71-.25,.26-24.95,26.43-20.96,77.83,.02,.26-.16,.49-.42,.53Z"/>
              <path class="cls-18" d="M138.63,241.5c-.2,.03-.41-.06-.51-.25-.14-.24-.05-.55,.19-.68,.17-.1,4.24-2.35,11.66-2.27,.28,0,.5,.23,.5,.5,0,.28-.23,.5-.51,.5-7.13-.07-11.12,2.12-11.15,2.14-.05,.03-.11,.05-.17,.06Z"/>
              <path class="cls-18" d="M134.48,248.73c-.26,.04-.51-.13-.57-.39-3.24-15.28,3.21-29.03,3.28-29.17,.12-.25,.42-.35,.67-.24,.25,.12,.35,.42,.24,.67-.06,.13-6.37,13.59-3.2,28.53,.06,.27-.12,.54-.39,.59,0,0-.02,0-.03,0Z"/>
              <path class="cls-18" d="M128.41,263.45c-.12,.02-.26,0-.37-.09-.23-.16-.28-.47-.12-.7,.05-.07,5.39-7.47,14.61-6.12,.27,.04,.46,.29,.42,.57-.04,.27-.29,.46-.57,.42-8.61-1.26-13.6,5.64-13.64,5.71-.08,.11-.2,.18-.33,.2Z"/>
              <path class="cls-18" d="M125.69,273.4c-.18,.03-.38-.05-.49-.21-.2-.29-4.97-7.34-5.41-18.67-.01-.28,.19-.51,.48-.52,.28-.01,.51,.2,.52,.48,.43,11.02,5.19,18.07,5.24,18.14,.16,.23,.1,.54-.13,.69-.06,.04-.13,.07-.2,.08Z"/>
            </g>
            <g>
              <g>
                <path class="cls-18" d="M128.13,334.81c-.26,.04-.5-.12-.56-.38l-4.44-17.87c-10.87-44.21-47.58-68.36-47.95-68.6-.23-.15-.3-.46-.15-.69,.15-.23,.46-.3,.69-.15,.37,.24,37.4,24.6,48.38,69.21l4.44,17.87c.06,.27-.1,.54-.37,.6-.01,0-.02,0-.04,0Z"/>
                <path class="cls-18" d="M91.17,262.17s-.05,0-.08,0c-.04,0-.1-.01-.15-.03l-.17-.03c-4.34-.86-8.99-.82-13.09,.1-.27,.07-.54-.11-.6-.38-.06-.27,.11-.54,.38-.6,4.23-.95,9.03-.99,13.5-.11l.18,.03s.06,.01,.09,.02c.21,.06,.37,.25,.37,.49,0,.25-.18,.45-.42,.49Z"/>
                <path class="cls-18" d="M96.66,267.04s-.02,0-.02,0c-.27,.03-.52-.17-.55-.44-1.47-13.4-10.47-22.85-10.56-22.95-.19-.2-.19-.52,.01-.71,.2-.19,.52-.19,.71,.01,.09,.1,9.33,9.78,10.84,23.53,.03,.27-.16,.51-.42,.55Z"/>
                <path class="cls-18" d="M102.66,273.76c-.12,.02-.25,0-.36-.08-.06-.04-6.02-3.94-12.89-.54-.25,.12-.55,.02-.67-.23-.12-.25-.02-.55,.23-.67,7.41-3.67,13.63,.43,13.9,.6,.23,.15,.29,.46,.14,.69-.08,.12-.2,.19-.34,.22Z"/>
                <path class="cls-18" d="M110.86,285.18c-.07,.01-.14,0-.22-.01-.26-.08-.42-.35-.34-.62,.02-.07,2.06-7.33-.62-16.67-.08-.27,.08-.54,.34-.62,.26-.09,.54,.08,.62,.34,2.77,9.63,.71,16.92,.62,17.22-.06,.19-.22,.32-.4,.35Z"/>
              </g>
              <g>
                <path class="cls-18" d="M116.13,294.03c-6.17,1.39-17.93-2.2-23.23-6.95-5.38-4.82,7.2-3.72,5.07-7.93-2.13-4.21-16.08,2.08-20.09-3.76-4.01-5.84,6.84-6.53,5.76-9.71-1.09-3.18-11.88-.28-16.78-6.35-4.9-6.07,5.49-4.24,3.41-6.74-2.09-2.51-16.56-11.88-12.02-15.39,4.54-3.5,18.36,6.52,22.43,7.12,4.07,.6,3.21-8.1,8.96-5.03,5.76,3.07,5.72,21.64,12,22.8,4.68,.87,1.17-6.91,6.56-5.87,9.44,1.82,10.44,37.24,7.94,37.8Z"/>
                <g class="cls-25">
                  <path class="cls-8" d="M116.13,294.03c-6.17,1.39-17.93-2.2-23.23-6.95-5.38-4.82,7.2-3.72,5.07-7.93-2.13-4.21-16.08,2.08-20.09-3.76-4.01-5.84,6.84-6.53,5.76-9.71-1.09-3.18-11.88-.28-16.78-6.35-4.9-6.07,5.49-4.24,3.41-6.74-2.09-2.51-16.56-11.88-12.02-15.39,4.54-3.5,18.36,6.52,22.43,7.12,4.07,.6,3.21-8.1,8.96-5.03,5.76,3.07,5.72,21.64,12,22.8,4.68,.87,1.17-6.91,6.56-5.87,9.44,1.82,10.44,37.24,7.94,37.8Z"/>
                </g>
              </g>
            </g>
          </g>
          <g>
            <g>
              <g>
                <path class="cls-18" d="M123.16,313.39s-.04,0-.06,0c-.28,0-.51-.21-.52-.48,0-.09-.09-1.06-.28-2.74-.27-2.51-.89-7.75-2.08-14.72-.01-.13-.03-.21-.05-.3-1.34-7.78-2.98-15.38-4.88-22.61-1.77-6.74-3.8-13.24-6.03-19.32-2.03-5.5-4.23-10.66-6.55-15.35,0-.01-.01-.03-.02-.04h0c-.36-.73-.74-1.47-1.11-2.2-.31-.59-.62-1.19-.95-1.79-.83-1.55-1.6-3.03-2.28-4.41-1.51-3.04-2.91-6.09-4.14-9.07-.75-1.79-1.44-3.55-2.06-5.25-2.44-6.62-4.29-13.27-5.49-19.77-.49-2.65-.88-5.31-1.14-7.91-.29-2.83-.43-5.6-.42-8.21,0-.2,0-.38,0-.55v-.26c-.01-.12,.01-.25,.09-.35,.16-.23,.47-.28,.7-.13,.15,.1,.23,.29,.22,.47h0s0,.26,0,.26c0,.18,0,.37,0,.57-.01,2.57,.13,5.29,.42,8.09,.27,2.57,.65,5.21,1.13,7.83,1.19,6.45,3.02,13.04,5.44,19.61,.61,1.68,1.3,3.43,2.04,5.21,1.23,2.96,2.61,5.99,4.12,9.01,.68,1.37,1.44,2.85,2.27,4.38,.33,.6,.64,1.2,.96,1.8,.38,.74,.75,1.47,1.12,2.21,0,.01,.02,.03,.02,.04h0c2.33,4.72,4.55,9.92,6.59,15.45,2.24,6.11,4.28,12.63,6.05,19.41,1.91,7.26,3.56,14.89,4.89,22.68,.02,.11,.04,.22,.06,.35,1.19,6.96,1.82,12.23,2.09,14.75,.19,1.71,.29,2.73,.29,2.82,0,.25-.18,.47-.42,.51Z"/>
                <g>
                  <path class="cls-18" d="M85.59,178.52s0-.02,.02-.03t.02-.03c.7-.93,1.51-1.77,2.39-2.52,.98-.8,2.05-1.49,3.2-2.02"/>
                  <path class="cls-18" d="M85.67,179.01c-.07,.01-.13,0-.2,0-.27-.07-.43-.34-.36-.61,.02-.06,.04-.12,.08-.17,.01-.02,.03-.04,.04-.06h0c.7-.94,1.54-1.82,2.47-2.6,1.06-.86,2.17-1.57,3.32-2.09,.25-.11,.55,0,.66,.25,.12,.25,0,.55-.25,.66-1.07,.49-2.11,1.15-3.1,1.95-.87,.73-1.65,1.55-2.31,2.43,0,0,0,0,0,.01-.08,.12-.21,.21-.35,.23Z"/>
                </g>
                <path class="cls-18" d="M86.09,187.88c-.11,.02-.23,0-.33-.06l-3.76-2.23c-.24-.14-.32-.45-.18-.69,.14-.24,.45-.32,.69-.18l3.76,2.23c.24,.14,.32,.45,.18,.68-.08,.13-.21,.22-.35,.24Z"/>
                <path class="cls-18" d="M98.88,229.77c-.26,.04-.52-.17-.58-.44h0c-.02-1.02,.07-1.93,.25-2.81,.24-1.29,.67-2.55,1.28-3.73,.45-.87,1-1.7,1.65-2.47,.18-.21,.49-.24,.7-.06,.21,.18,.24,.49,.06,.7-.6,.72-1.11,1.48-1.53,2.29-.57,1.1-.97,2.26-1.19,3.46-.17,.82-.25,1.66-.24,2.5,.06,.27-.12,.49-.39,.55,0,0-.01,0-.02,0Z"/>
                <path class="cls-18" d="M103.24,238.15c-.19,.03-.39-.05-.5-.22-1.26-1.93-3.36-3.3-5.63-3.66-.27-.04-.46-.3-.41-.57,.04-.27,.3-.46,.57-.41,2.55,.41,4.9,1.94,6.31,4.11,.15,.23,.09,.54-.15,.69-.06,.04-.13,.06-.19,.07Z"/>
                <g>
                  <path class="cls-18" d="M117.77,280.9c-1.32-1.06-3.13-5.78-4.1-8.31-.23-.61-.43-1.12-.58-1.49"/>
                  <path class="cls-18" d="M117.85,281.39c-.13,.02-.28-.01-.39-.1-1.32-1.06-2.89-4.95-4.25-8.52-.23-.6-.43-1.11-.58-1.48-.11-.26,.02-.55,.27-.65,.25-.11,.55,.02,.65,.27,.15,.37,.35,.89,.59,1.5,.88,2.31,2.72,7.12,3.94,8.1,.22,.17,.25,.49,.08,.7-.08,.1-.19,.16-.31,.18Z"/>
                </g>
              </g>
              <path class="cls-18" d="M94.76,220.72c-.26,.04-.5-.12-.56-.38-.19-.8-4.49-19.62,4.8-28.91,.2-.2,.51-.19,.71,0,.2,.2,.2,.51,0,.71-8.89,8.89-4.58,27.78-4.53,27.98,.06,.27-.1,.54-.37,.6-.01,0-.02,0-.04,0Z"/>
              <g>
                <path class="cls-18" d="M102.23,261.97c-.47,4.8,11.02,11.4,11.02,11.4,0,0,12.55-4.25,13.02-9.05,.47-4.8-4.31-11.52-10.94-12.17-6.64-.65-12.63,5.02-13.1,9.82Z"/>
                <path class="cls-18" d="M80.22,209.39c2.22,4.54,12.13,6.06,12.13,6.06,0,0,4.9-8.75,2.68-13.29-2.22-4.54-8.39-8.78-12.48-6.79-4.09,2-4.55,9.47-2.33,14.01Z"/>
                <path class="cls-18" d="M107.65,219.78c-1.04,1.16-2.11,2.34-3.5,3.04-1.39,.7-3.19,.81-4.42-.13-1.53-1.17-1.65-3.45-1.22-5.33,.85-3.72,5.36-10.67,10.08-9.91,6.81,1.1,1.45,9.66-.95,12.32Z"/>
                <path class="cls-18" d="M96.49,231.11c1.04,.86,2.19,1.97,1.99,3.31-.18,1.18-1.43,1.96-2.62,2.03-1.19,.06-2.34-.42-3.44-.89-2.55-1.09-7.79-3.41-5.49-7.05,2.39-3.78,7.38,.79,9.57,2.6Z"/>
                <path class="cls-18" d="M106.29,184.01c.98-.09,2.08,.35,2.43,1.26,.42,1.07-.3,2.22-1.05,3.09-1.87,2.16-7.58,8.13-9.98,3.99-2.27-3.91,5.59-8.07,8.6-8.35Z"/>
                <path class="cls-18" d="M91.02,171.89c1.4-.15,2.67-.93,4.07-1.12,1.4-.19,3.15,.6,3.12,2.01-.03,1.3-1.49,2.03-2.75,2.38-2.14,.58-4.37,.88-6.59,.88-.52,0-1.08-.04-1.45-.4-.72-.71-.06-1.99,.82-2.47,.89-.48,1.98-.61,2.74-1.28h.04Z"/>
                <path class="cls-18" d="M79.53,184.1c-1.37,.32-2.83,0-4.21,.29-1.38,.28-2.77,1.61-2.28,2.93,.46,1.22,2.08,1.43,3.38,1.33,2.22-.16,4.41-.62,6.51-1.35,.49-.17,1.01-.39,1.24-.86,.45-.91-.6-1.9-1.6-2.06-1-.16-2.07,.08-3.01-.3h-.04Z"/>
              </g>
            </g>
            <path class="cls-18" d="M85.5,180.43s-.02,0-.04,0c-.27,.02-.52-.18-.54-.45-.24-2.73-.95-5.28-1.48-5.35-.27-.03-.47-.28-.43-.56,.03-.27,.28-.47,.56-.43,1.64,.21,2.19,4.44,2.35,6.26,.02,.26-.16,.5-.42,.54Z"/>
            <path class="cls-18" d="M85.41,173.94c-1.22-1.7-2.52-3.47-4.42-4.34-1.9-.86-4.57-.41-5.44,1.49-.97,2.13,.96,4.66,3.22,5.23,2.27,.56,4.63-.23,6.83-1.01-.05-.34-.1-.68-.15-1.02l-.04-.34Z"/>
          </g>
        </g>
        <g>
          <g>
            <path class="cls-18" d="M264.44,334.37h20.92c3.12-4.57,5.85-10.05,7.08-16.22,.58-2.88,.8-5.75,.75-8.55-.08-4.6-.88-8.98-1.96-12.87-2.53-9.19-6.66-15.64-6.66-15.64,0,0-17.75,12.34-21.53,31.19-1.59,7.9-.45,15.71,1.4,22.09Z"/>
            <path class="cls-22" d="M264.44,334.37h20.92c3.12-4.57,5.85-10.05,7.08-16.22,.58-2.88,.8-5.75,.75-8.55-.08-4.6-.88-8.98-1.96-12.87-2.53-9.19-6.66-15.64-6.66-15.64,0,0-17.75,12.34-21.53,31.19-1.59,7.9-.45,15.71,1.4,22.09Z"/>
          </g>
          <g>
            <path class="cls-18" d="M269.99,334.37h24.45c2.18-2.19,4.19-4.69,5.84-7.54,9.2-15.77,4.27-36.01,4.27-36.01,0,0-6.23,1.66-13.32,5.91-3.31,2-6.82,4.55-9.96,7.76-2.14,2.16-4.08,4.62-5.72,7.41-4.27,7.35-5.49,15.68-5.56,22.47Z"/>
            <g class="cls-21">
              <path class="cls-8" d="M269.99,334.37h24.45c2.18-2.19,4.19-4.69,5.84-7.54,9.2-15.77,4.27-36.01,4.27-36.01,0,0-6.23,1.66-13.32,5.91-3.31,2-6.82,4.55-9.96,7.76-2.14,2.16-4.08,4.62-5.72,7.41-4.27,7.35-5.49,15.68-5.56,22.47Z"/>
            </g>
          </g>
        </g>
      </g>
    </g>
  </g>
  <g id="Lines">
    <g>
      <path class="cls-20" d="M199.41,226.11c-.28,0-.5-.22-.5-.5l-.24-156.33c0-.28,.22-.5,.5-.5h0c.28,0,.5,.22,.5,.5l.24,156.33c0,.28-.22,.5-.5,.5h0Z"/>
      <path class="cls-20" d="M199.16,65.2c-.28,0-.5-.22-.5-.5v-2.96c0-.28,.22-.5,.49-.5,.32,0,.5,.22,.5,.5v2.96c0,.28-.22,.5-.49,.5h0Z"/>
      <path class="cls-20" d="M199.16,58.98c-.28,0-.5-.22-.5-.5v-9.25c-.01-.28,.21-.5,.48-.5h0c.28,0,.5,.22,.5,.5v9.25c.01,.28-.21,.5-.48,.5h0Z"/>
      <path class="cls-20" d="M199.41,226.11c-.2,0-.4-.12-.47-.33l-39.96-109.07c-.1-.26,.04-.55,.3-.64,.26-.1,.55,.04,.64,.3l39.96,109.07c.09,.26-.04,.55-.3,.64-.06,.02-.11,.03-.17,.03Z"/>
      <path class="cls-20" d="M159.45,117.04c-.2,0-.4-.13-.47-.33l-1.9-5.18c-.09-.26,.04-.55,.3-.64,.26-.09,.55,.04,.64,.3l1.9,5.18c.09,.26-.04,.55-.3,.64-.06,.02-.11,.03-.17,.03Z"/>
      <path class="cls-20" d="M154.84,104.46c-.2,0-.4-.13-.47-.33l-14.1-38.49c-.1-.26,.04-.55,.3-.64,.26-.1,.55,.04,.64,.3l14.1,38.49c.1,.26-.04,.55-.3,.64-.06,.02-.11,.03-.17,.03Z"/>
      <path class="cls-20" d="M199.41,226.11c-.14,0-.28-.06-.38-.18L107.5,117.39c-.18-.21-.15-.53,.06-.7,.21-.18,.53-.15,.7,.06l91.53,108.54c.18,.21,.15,.53-.06,.7-.09,.08-.21,.12-.32,.12Z"/>
      <path class="cls-20" d="M102.28,110.92c-.14,0-.28-.06-.38-.18l-12.9-15.29c-.18-.21-.15-.53,.06-.7,.21-.18,.53-.15,.7,.06l12.9,15.29c.18,.21,.15,.53-.06,.7-.09,.08-.21,.12-.32,.12Z"/>
      <path class="cls-20" d="M268.53,143.74c-.11,0-.23-.04-.32-.12-.21-.18-.24-.49-.06-.7l40.37-48.11c.18-.21,.49-.24,.7-.06,.21,.18,.24,.49,.06,.7l-40.37,48.11c-.1,.12-.24,.18-.38,.18Z"/>
      <path class="cls-20" d="M259.54,154.45c-.11,0-.23-.04-.32-.12-.21-.18-.24-.49-.06-.7l4.68-5.58c.18-.21,.49-.24,.7-.06,.21,.18,.24,.49,.06,.7l-4.68,5.58c-.1,.12-.24,.18-.38,.18Z"/>
      <path class="cls-20" d="M199.41,226.11c-.11,0-.23-.04-.32-.12-.21-.18-.24-.49-.06-.7l56.1-66.86c.18-.21,.49-.24,.7-.06,.21,.18,.24,.49,.06,.7l-56.1,66.86c-.1,.12-.24,.18-.38,.18Z"/>
      <path class="cls-20" d="M251.4,82.89c-.06,0-.11,0-.17-.03-.26-.09-.39-.38-.3-.64l6.14-16.92c.09-.26,.38-.39,.64-.3,.26,.09,.39,.38,.3,.64l-6.14,16.92c-.07,.2-.27,.33-.47,.33Z"/>
      <path class="cls-20" d="M199.41,226.11c-.06,0-.11,0-.17-.03-.26-.09-.39-.38-.3-.64l49.71-136.95c.09-.26,.38-.39,.64-.3,.26,.09,.39,.38,.3,.64l-49.71,136.95c-.07,.2-.27,.33-.47,.33Z"/>
    </g>
  </g>
  <g id="Clock">
    <g>
      <path class="cls-20" d="M132.28,306.1s7.6-1.9,11.41,2.61c3.8,4.51,0,8.32,0,8.32l-13.67,17.51c-.6,.73-1.5,1.15-2.45,1.15h-4.12c-2.4,0-3.94-2.56-2.8-4.68l11.64-24.91Z"/>
      <g>
        <g>
          <ellipse class="cls-18" cx="205.11" cy="247.22" rx="89.34" ry="89.3" transform="translate(-114.98 220.2) rotate(-45.49)"/>
          <g class="cls-26">
            <ellipse cx="205.11" cy="247.22" rx="89.34" ry="89.3" transform="translate(-114.98 220.2) rotate(-45.49)"/>
          </g>
        </g>
        <g>
          <g>
            <circle class="cls-18" cx="184.91" cy="247.22" r="89.32" transform="translate(-87.05 393.31) rotate(-81.45)"/>
            <circle class="cls-12" cx="183.83" cy="247.22" r="71.68"/>
          </g>
          <polygon class="cls-20" points="180.82 244.33 149.97 273.36 152.97 276.54 180.91 250.25 230.99 294.49 233.89 291.22 180.82 244.33"/>
          <path class="cls-18" d="M188.92,250.96c0,4.01-3.25,7.27-7.27,7.27s-7.27-3.25-7.27-7.27,3.25-7.27,7.27-7.27,7.27,3.25,7.27,7.27Z"/>
        </g>
      </g>
      <path class="cls-20" d="M264.97,306.1s-7.6-1.9-11.41,2.61c-3.8,4.51,0,8.32,0,8.32l13.67,17.51c.6,.73,1.5,1.15,2.45,1.15h4.12c2.4,0,3.94-2.56,2.8-4.68l-11.64-24.91Z"/>
    </g>
  </g>
  <g id="Sport">
    <g>
      <g>
        <path class="cls-18" d="M335.3,83.08c-1.14,.84-2.23,1.42-3.17,1.8-2.38,.98-4.3,.98-5.03,.93-2.28-.62-4.48-1.69-6.47-3.22-2.21-1.7-3.94-3.79-5.16-6.11,.1,.1,.21,.19,.32,.29,.25,.22,.5,.43,.77,.64,1.36,1.05,3.03,1.95,4.96,2.68,2.86,1.09,6.33,1.81,10.31,2.14,.76,.14,2.17,.44,3.47,.84Z"/>
        <path class="cls-18" d="M339.06,85.59c-2.77,1.01-5.74,1.35-8.67,1.01,.76-.15,1.62-.39,2.55-.76,1.32-.54,2.59-1.28,3.79-2.22,.87,.32,1.59,.68,1.89,1.05,.28,.36,.41,.67,.45,.92Z"/>
        <path class="cls-18" d="M345.71,81.36c-1.72,1.65-3.7,2.91-5.82,3.78-.08-.34-.25-.71-.56-1.1-.33-.43-1.01-.81-1.82-1.14,.28-.24,.55-.49,.82-.75,.62-.6,1.21-1.25,1.79-1.96,2.27,.89,4.18,1.29,5.58,1.16Z"/>
        <path class="cls-18" d="M347.77,79.06c-.34,.45-.71,.88-1.08,1.28l-.03-.06c-.94,.37-2.46,.25-4.41-.34-.48-.15-.99-.32-1.51-.52,.81-1.07,1.57-2.25,2.27-3.54,1.16,.33,2.67,.57,4.3-.26,1.57-.8,2.94-2.47,4.1-4.97-.48,2.96-1.68,5.86-3.64,8.4Z"/>
        <path class="cls-18" d="M347.28,74.56c-1.33,.68-2.56,.54-3.61,.25,.13-.25,.26-.51,.39-.77,1.77-3.64,2.82-7.15,3.12-10.43,.24-2.63,0-5.13-.73-7.41-.51-1.61-1.18-2.88-1.8-3.83,3.42,2.64,5.68,6.23,6.7,10.11,.85,3.28,.39,6.83-1.52,9.64-.78,1.15-1.63,1.96-2.55,2.43Z"/>
        <path class="cls-18" d="M342.61,74.3c-1.68-.81-3.23-3.31-3.8-4.89-5.31-14.81-8.67-19.35-10.47-20.64,4.61-1.14,9.61-.53,13.91,1.98,.5,.5,2.16,2.32,3.15,5.46,1.08,3.44,1.54,9.23-2.37,17.25-.14,.29-.28,.57-.43,.84Z"/>
        <path class="cls-18" d="M339.72,78.84c-1.34-.55-2.79-1.26-4.28-2.1-4.99-2.8-9.87-6.67-13.05-10.35-3.33-3.85-4.65-6.44-5.17-7.93-.19-.54-.29-.98-.34-1.32,.27-.41,.56-.82,.86-1.22,2.46-3.2,5.74-5.38,9.33-6.49,.37,.11,1.15,.54,2.37,2.22,2.39,3.27,5.23,9.46,8.43,18.39,.53,1.48,1.8,3.6,3.32,4.77,.27,.2,.54,.38,.82,.52-.74,1.35-1.51,2.51-2.29,3.52Z"/>
        <path class="cls-18" d="M339.05,79.69c-.9,1.09-1.81,1.98-2.69,2.7-1.75-.59-3.72-.96-4.06-1.02h-.03c-8.79-.74-13.32-3.26-15.57-5.24-.88-.77-1.49-1.52-1.91-2.17-1.82-5.05-1.44-10.79,1.35-15.66,.04,.16,.09,.32,.15,.49,.75,2.28,2.56,5.09,5.36,8.33,1.77,2.05,4.07,4.16,6.61,6.12,2.09,1.61,4.35,3.11,6.64,4.39,1.47,.83,2.87,1.52,4.16,2.06Z"/>
      </g>
      <g class="cls-25">
        <path class="cls-13" d="M339.06,85.59c-2.77,1.01-5.74,1.35-8.67,1.01,.76-.15,1.62-.39,2.55-.76,1.32-.54,2.59-1.28,3.79-2.22,.87,.32,1.59,.68,1.89,1.05,.28,.36,.41,.67,.45,.92Z"/>
        <path class="cls-13" d="M345.71,81.36c-1.72,1.65-3.7,2.91-5.82,3.78-.08-.34-.25-.71-.56-1.1-.33-.43-1.01-.81-1.82-1.14,.28-.24,.55-.49,.82-.75,.62-.6,1.21-1.25,1.79-1.96,2.27,.89,4.18,1.29,5.58,1.16Z"/>
        <path class="cls-13" d="M347.77,79.06c-.34,.45-.71,.88-1.08,1.28l-.03-.06c-.94,.37-2.46,.25-4.41-.34-.48-.15-.99-.32-1.51-.52,.81-1.07,1.57-2.25,2.27-3.54,1.16,.33,2.67,.57,4.3-.26,1.57-.8,2.94-2.47,4.1-4.97-.48,2.96-1.68,5.86-3.64,8.4Z"/>
        <path class="cls-8" d="M347.28,74.56c-1.33,.68-2.56,.54-3.61,.25,.13-.25,.26-.51,.39-.77,1.77-3.64,2.82-7.15,3.12-10.43,.24-2.63,0-5.13-.73-7.41-.51-1.61-1.18-2.88-1.8-3.83,3.42,2.64,5.68,6.23,6.7,10.11,.85,3.28,.39,6.83-1.52,9.64-.78,1.15-1.63,1.96-2.55,2.43Z"/>
        <path class="cls-13" d="M335.3,83.08c-1.14,.84-2.23,1.42-3.17,1.8-2.38,.98-4.3,.98-5.03,.93-2.28-.62-4.48-1.69-6.47-3.22-2.21-1.7-3.94-3.79-5.16-6.11,.1,.1,.21,.19,.32,.29,.25,.22,.5,.43,.77,.64,1.36,1.05,3.03,1.95,4.96,2.68,2.86,1.09,6.33,1.81,10.31,2.14,.76,.14,2.17,.44,3.47,.84Z"/>
        <path class="cls-8" d="M342.61,74.3c-1.68-.81-3.23-3.31-3.8-4.89-5.31-14.81-8.67-19.35-10.47-20.64,4.61-1.14,9.61-.53,13.91,1.98,.5,.5,2.16,2.32,3.15,5.46,1.08,3.44,1.54,9.23-2.37,17.25-.14,.29-.28,.57-.43,.84Z"/>
        <path class="cls-8" d="M339.72,78.84c-1.34-.55-2.79-1.26-4.28-2.1-4.99-2.8-9.87-6.67-13.05-10.35-3.33-3.85-4.65-6.44-5.17-7.93-.19-.54-.29-.98-.34-1.32,.27-.41,.56-.82,.86-1.22,2.46-3.2,5.74-5.38,9.33-6.49,.37,.11,1.15,.54,2.37,2.22,2.39,3.27,5.23,9.46,8.43,18.39,.53,1.48,1.8,3.6,3.32,4.77,.27,.2,.54,.38,.82,.52-.74,1.35-1.51,2.51-2.29,3.52Z"/>
        <path class="cls-8" d="M339.05,79.69c-.9,1.09-1.81,1.98-2.69,2.7-1.75-.59-3.72-.96-4.06-1.02h-.03c-8.79-.74-13.32-3.26-15.57-5.24-.88-.77-1.49-1.52-1.91-2.17-1.82-5.05-1.44-10.79,1.35-15.66,.04,.16,.09,.32,.15,.49,.75,2.28,2.56,5.09,5.36,8.33,1.77,2.05,4.07,4.16,6.61,6.12,2.09,1.61,4.35,3.11,6.64,4.39,1.47,.83,2.87,1.52,4.16,2.06Z"/>
      </g>
    </g>
  </g>
  <g id="Love">
    <g>
      <g>
        <polygon class="cls-18" points="268.9 44.75 260.12 51.95 259.54 51.37 268.41 44.04 268.9 44.75"/>
        <g>
          <path class="cls-18" d="M276.6,32.58c.55-4.3-3.8-8.73-8.05-9.62-4.24-.88-10.14,2.66-11.3,6.84-2.94,10.62,7.56,16.05,10.62,18.28,3.05,2.23,6.56,4.9,6.52,7.18,1.55-2.5,3.07-3.64,5.22-5.66,2.14-2.02,4.32-4.04,6-6.46,1.67-2.42,2.81-5.33,2.59-8.27-.22-2.94-1.98-5.94-4.78-6.85-5.79-1.88-6.82,4.56-6.82,4.56Z"/>
          <g class="cls-27">
            <path class="cls-8" d="M276.6,32.58c.55-4.3-3.8-8.73-8.05-9.62-4.24-.88-10.14,2.66-11.3,6.84-2.94,10.62,7.56,16.05,10.62,18.28,3.05,2.23,6.56,4.9,6.52,7.18,1.55-2.5,3.07-3.64,5.22-5.66,2.14-2.02,4.32-4.04,6-6.46,1.67-2.42,2.81-5.33,2.59-8.27-.22-2.94-1.98-5.94-4.78-6.85-5.79-1.88-6.82,4.56-6.82,4.56Z"/>
          </g>
        </g>
      </g>
      <polygon class="cls-18" points="290.29 28.07 281.51 35.27 280.93 34.69 289.8 27.36 290.29 28.07"/>
      <polygon class="cls-18" points="287.29 25.65 291.73 30.84 294.75 23.44 287.29 25.65"/>
    </g>
  </g>
  <g id="Money">
    <g>
      <g>
        <g>
          <g>
            <path class="cls-18" d="M187.43,36.08c-.02,1.67,5.31,3.11,11.91,3.21,6.6,.1,11.98-1.18,12-2.85,.02-1.67-5.31-3.11-11.91-3.21-6.6-.1-11.98,1.18-12,2.85Z"/>
            <rect class="cls-18" x="197.89" y="22.78" width="3.03" height="23.92" transform="translate(161.72 233.62) rotate(-89.15)"/>
          </g>
          <g>
            <path class="cls-18" d="M187.47,33.05c-.02,1.67,5.31,3.11,11.91,3.21,6.6,.1,11.98-1.18,12-2.85,.02-1.67-5.31-3.11-11.91-3.21-6.6-.1-11.98,1.18-12,2.85Z"/>
            <path class="cls-15" d="M187.47,33.05c-.02,1.67,5.31,3.11,11.91,3.21,6.6,.1,11.98-1.18,12-2.85,.02-1.67-5.31-3.11-11.91-3.21-6.6-.1-11.98,1.18-12,2.85Z"/>
          </g>
          <g>
            <path class="cls-18" d="M189,32.96c0,.1,.04,.22,.11,.29,.77-1,5.12-1.7,10.35-1.62,5.24,.08,9.57,.9,10.29,1.93,.07-.08,.12-.19,.12-.29,.02-1.13-4.64-2.14-10.4-2.22-5.75-.09-10.45,.78-10.47,1.92Z"/>
            <path class="cls-19" d="M189,32.96c0,.1,.04,.22,.11,.29,.77-1,5.12-1.7,10.35-1.62,5.24,.08,9.57,.9,10.29,1.93,.07-.08,.12-.19,.12-.29,.02-1.13-4.64-2.14-10.4-2.22-5.75-.09-10.45,.78-10.47,1.92Z"/>
          </g>
          <path class="cls-19" d="M189.11,33.25c.74,1.03,5.07,1.85,10.29,1.93,5.24,.08,9.59-.62,10.35-1.62-.73-1.03-5.06-1.85-10.29-1.93-5.22-.08-9.58,.62-10.35,1.62Z"/>
        </g>
        <g>
          <g>
            <path class="cls-18" d="M186.3,31.53c-.02,1.67,5.31,3.11,11.91,3.21,6.6,.1,11.98-1.18,12-2.85,.02-1.67-5.31-3.11-11.91-3.21-6.6-.1-11.98,1.18-12,2.85Z"/>
            <rect class="cls-18" x="196.77" y="18.23" width="3.03" height="23.92" transform="translate(165.16 228) rotate(-89.15)"/>
          </g>
          <g>
            <path class="cls-18" d="M186.35,28.5c-.02,1.67,5.31,3.11,11.91,3.21,6.6,.1,11.98-1.18,12-2.85,.02-1.67-5.31-3.11-11.91-3.21-6.6-.1-11.98,1.18-12,2.85Z"/>
            <path class="cls-15" d="M186.35,28.5c-.02,1.67,5.31,3.11,11.91,3.21,6.6,.1,11.98-1.18,12-2.85,.02-1.67-5.31-3.11-11.91-3.21-6.6-.1-11.98,1.18-12,2.85Z"/>
          </g>
          <g>
            <path class="cls-18" d="M187.87,28.4c0,.1,.04,.22,.11,.29,.77-1,5.12-1.7,10.35-1.62,5.24,.08,9.57,.9,10.29,1.93,.07-.08,.12-.19,.12-.29,.02-1.13-4.64-2.14-10.4-2.22-5.75-.09-10.45,.78-10.47,1.92Z"/>
            <path class="cls-19" d="M187.87,28.4c0,.1,.04,.22,.11,.29,.77-1,5.12-1.7,10.35-1.62,5.24,.08,9.57,.9,10.29,1.93,.07-.08,.12-.19,.12-.29,.02-1.13-4.64-2.14-10.4-2.22-5.75-.09-10.45,.78-10.47,1.92Z"/>
          </g>
          <path class="cls-19" d="M187.98,28.7c.74,1.03,5.07,1.85,10.29,1.93,5.24,.08,9.59-.62,10.35-1.62-.73-1.03-5.06-1.85-10.29-1.93-5.22-.08-9.58,.62-10.35,1.62Z"/>
        </g>
        <g>
          <g>
            <path class="cls-18" d="M187.17,26.64c-.02,1.67,5.31,3.11,11.91,3.21,6.6,.1,11.98-1.18,12-2.85,.02-1.67-5.31-3.11-11.91-3.21-6.6-.1-11.98,1.18-12,2.85Z"/>
            <rect class="cls-18" x="197.63" y="13.34" width="3.03" height="23.92" transform="translate(170.9 224.05) rotate(-89.15)"/>
          </g>
          <g>
            <path class="cls-18" d="M187.21,23.61c-.02,1.67,5.31,3.11,11.91,3.21,6.6,.1,11.98-1.18,12-2.85,.02-1.67-5.31-3.11-11.91-3.21-6.6-.1-11.98,1.18-12,2.85Z"/>
            <path class="cls-15" d="M187.21,23.61c-.02,1.67,5.31,3.11,11.91,3.21,6.6,.1,11.98-1.18,12-2.85,.02-1.67-5.31-3.11-11.91-3.21-6.6-.1-11.98,1.18-12,2.85Z"/>
          </g>
          <g>
            <path class="cls-18" d="M188.73,23.52c0,.1,.04,.22,.11,.29,.77-1,5.12-1.7,10.35-1.62,5.24,.08,9.57,.9,10.29,1.93,.07-.08,.12-.19,.12-.29,.02-1.13-4.64-2.14-10.4-2.22-5.75-.09-10.45,.78-10.47,1.92Z"/>
            <path class="cls-19" d="M188.73,23.52c0,.1,.04,.22,.11,.29,.77-1,5.12-1.7,10.35-1.62,5.24,.08,9.57,.9,10.29,1.93,.07-.08,.12-.19,.12-.29,.02-1.13-4.64-2.14-10.4-2.22-5.75-.09-10.45,.78-10.47,1.92Z"/>
          </g>
          <path class="cls-19" d="M188.84,23.81c.74,1.03,5.07,1.85,10.29,1.93,5.24,.08,9.59-.62,10.35-1.62-.73-1.03-5.06-1.85-10.29-1.93-5.22-.08-9.58,.62-10.35,1.62Z"/>
        </g>
        <g>
          <g>
            <path class="cls-18" d="M186.24,21.94c-.02,1.67,5.31,3.11,11.91,3.21,6.6,.1,11.98-1.18,12-2.85,.02-1.67-5.31-3.11-11.91-3.21-6.6-.1-11.98,1.18-12,2.85Z"/>
            <rect class="cls-18" x="196.7" y="8.64" width="3.03" height="23.92" transform="translate(174.69 218.49) rotate(-89.15)"/>
          </g>
          <g>
            <path class="cls-18" d="M186.28,18.91c-.02,1.67,5.31,3.11,11.91,3.21,6.6,.1,11.98-1.18,12-2.85,.02-1.67-5.31-3.11-11.91-3.21-6.6-.1-11.98,1.18-12,2.85Z"/>
            <path class="cls-15" d="M186.28,18.91c-.02,1.67,5.31,3.11,11.91,3.21,6.6,.1,11.98-1.18,12-2.85,.02-1.67-5.31-3.11-11.91-3.21-6.6-.1-11.98,1.18-12,2.85Z"/>
          </g>
          <g>
            <path class="cls-18" d="M187.8,18.82c0,.1,.04,.22,.11,.29,.77-1,5.12-1.7,10.35-1.62,5.24,.08,9.57,.9,10.29,1.93,.07-.08,.12-.19,.12-.29,.02-1.13-4.64-2.14-10.4-2.22-5.75-.09-10.45,.78-10.47,1.92Z"/>
            <path class="cls-19" d="M187.8,18.82c0,.1,.04,.22,.11,.29,.77-1,5.12-1.7,10.35-1.62,5.24,.08,9.57,.9,10.29,1.93,.07-.08,.12-.19,.12-.29,.02-1.13-4.64-2.14-10.4-2.22-5.75-.09-10.45,.78-10.47,1.92Z"/>
          </g>
          <path class="cls-19" d="M187.91,19.11c.74,1.03,5.07,1.85,10.29,1.93,5.24,.08,9.59-.62,10.35-1.62-.73-1.03-5.06-1.85-10.29-1.93-5.22-.08-9.58,.62-10.35,1.62Z"/>
        </g>
      </g>
      <g>
        <g>
          <path class="cls-18" d="M188.56,11.26c.14,4.96,5.16,8.84,11.22,8.67,6.06-.17,10.86-4.32,10.73-9.28-.14-4.96-5.16-8.84-11.22-8.67-6.06,.17-10.86,4.32-10.73,9.28Z"/>
          <path class="cls-18" d="M188.51,9.29c.14,4.96,5.16,8.84,11.22,8.67,6.06-.17,10.86-4.32,10.73-9.28-.14-4.96-5.16-8.84-11.22-8.67-6.06,.17-10.86,4.32-10.73,9.28Z"/>
          <path class="cls-15" d="M188.51,9.29c.14,4.96,5.16,8.84,11.22,8.67,6.06-.17,10.86-4.32,10.73-9.28-.14-4.96-5.16-8.84-11.22-8.67-6.06,.17-10.86,4.32-10.73,9.28Z"/>
          <path class="cls-18" d="M191.25,9.05c0,.24,.03,.47,.06,.69,.02,.02,0,.04,0,.05,.57,3.37,4.13,5.87,8.35,5.76,4.24-.12,7.66-2.81,8.04-6.21,0-.02-.02-.04,0-.05,.01-.22,.02-.46,.02-.69-.1-3.71-3.88-6.63-8.42-6.5-4.53,.13-8.14,3.25-8.03,6.96Z"/>
          <path class="cls-14" d="M191.31,9.74s0,.04,0,.05c.57,3.37,4.13,5.87,8.35,5.76,4.24-.12,7.66-2.81,8.04-6.21,0-.02-.02-.04,0-.05-.57-3.35-4.13-5.87-8.37-5.76-4.22,.12-7.64,2.83-8.02,6.21Z"/>
        </g>
        <g class="cls-27">
          <path class="cls-8" d="M202.63,10.85c.04,1.49-1.13,2.53-3.01,2.74l-.21,1.24-1.12,.03,.21-1.24c-1.07-.07-2.02-.38-2.61-.79l.71-1.41c.61,.42,1.37,.68,2.15,.74l.33-1.91c-1.05-.29-2.21-.67-2.25-2.03-.04-1.49,1.16-2.54,3.06-2.73l.21-1.24,1.12-.03-.21,1.25c.8,.06,1.54,.26,2.09,.58l-.65,1.41c-.49-.31-1.08-.49-1.69-.54l-.34,1.99c1.04,.28,2.17,.65,2.2,1.94Zm-3.28-2.23l.28-1.63c-.64,.14-.99,.5-.99,.93,0,.35,.3,.54,.71,.7Zm1.47,2.57c0-.33-.27-.52-.67-.66l-.26,1.55c.6-.14,.94-.46,.93-.89Z"/>
        </g>
      </g>
    </g>
  </g>
  <g id="Food">
    <g>
      <g>
        <g>
          <g>
            <polygon class="cls-18" points="132.64 54.95 120.3 54.95 119.3 21.27 133.64 21.27 132.64 54.95"/>
            <polygon class="cls-13" points="132.64 54.95 120.3 54.95 119.3 21.27 133.64 21.27 132.64 54.95"/>
          </g>
          <polygon class="cls-18" points="134.97 22.36 117.97 22.36 118.97 19.45 133.97 19.45 134.97 22.36"/>
          <polygon class="cls-18" points="133.05 41.24 133.31 32.48 119.63 32.48 119.89 41.24 133.05 41.24"/>
        </g>
        <path class="cls-12" d="M129.3,36.86c0,1.56-1.27,2.83-2.83,2.83s-2.83-1.27-2.83-2.83,1.27-2.83,2.83-2.83,2.83,1.27,2.83,2.83Z"/>
      </g>
      <g>
        <g>
          <path class="cls-18" d="M154.15,39.94c-.49-2.03-1.67-4.19-3.71-4.63-2.2-.48-4.22,1.22-5.83,2.79-.93-3.43-5.14-5.34-8.54-4.28-3.4,1.05-5.72,4.49-6.07,8.03-.35,3.54,1.02,7.08,3.13,9.95,2.08,2.82,4.39,4.12,7.83,3.43,2.48-.5,4.54,.18,6.92-.11,5.86-.7,7.36-10.68,6.28-15.18Z"/>
          <path class="cls-20" d="M145.03,30.72c.25,.41,.96-.12,1.38-.39-.65,1.66-.6,5.49-1.08,7.19-.22,.79-1.09,.36-1.21,.22,.32-3.49,.49-7.68,.91-7.02Z"/>
          <path class="cls-18" d="M147.09,31.1c.93-.74,2-1.26,3.06-1.77-.18,1.26-.42,2.55-1.13,3.59-.71,1.04-1.89,1.72-3.13,1.82-2.31,.18,.55-3.13,1.2-3.65Z"/>
        </g>
        <path class="cls-8" d="M137.6,36.15c-.58-.4-1.52,.05-1.58,.75-.07,.7,.76,1.31,1.41,1.04,.65-.27,.81-1.28,.28-1.74l-.11-.05Z"/>
        <path class="cls-8" d="M134.85,50.16c.11,.13,.24,.27,.41,.3,.32,.06,.58-.31,.56-.63-.02-.32-.23-.6-.4-.87-1.17-1.79-1.36-4.18-.5-6.13,.22-.5,.5-.97,.64-1.5,.32-1.25-.69-2.41-1.88-1.69-.91,.55-1.03,2.48-1.1,3.39-.18,2.55,.61,5.19,2.28,7.14Z"/>
      </g>
    </g>
  </g>
  <g id="Books">
    <g>
      <g>
        <g>
          <g>
            <path class="cls-18" d="M80.79,59.89v6.86c.84,0,.85,1.31,0,1.31-2.61,0-5.23,.02-7.84,.03v-9.52h7.84c.84,0,.85,1.31,0,1.31Z"/>
            <path class="cls-14" d="M80.79,59.89v6.86c.84,0,.85,1.31,0,1.31-2.61,0-5.23,.02-7.84,.03v-9.52h7.84c.84,0,.85,1.31,0,1.31Z"/>
          </g>
          <rect class="cls-18" x="74.69" y="59.9" width="6.09" height="6.85"/>
          <rect class="cls-10" x="74.69" y="59.9" width="6.09" height="6.85"/>
        </g>
        <path class="cls-18" d="M75.97,59.24H42.34c-1.45,0-2.63,1.83-2.63,4.08s1.18,4.08,2.63,4.08h33.63v-8.17Z"/>
        <path class="cls-11" d="M75.97,59.24H42.34c-1.45,0-2.63,1.83-2.63,4.08s1.18,4.08,2.63,4.08h33.63v-8.17Z"/>
        <path class="cls-18" d="M75.97,68.06c-6.92,0-26.35,.12-33.27,0-4.74-.09-4.99-9.16-.35-9.48,3.24-.22,6.57,0,9.81,0h23.8c.84,0,.85,1.31,0,1.31H43.8c-1.52,0-2.6,.02-3.19,1.81-.51,1.55-.35,4.71,1.73,5.05,.22,.04,.49,0,.71,0h32.92c.84,0,.85,1.31,0,1.31h0Z"/>
        <g class="cls-21">
          <path class="cls-8" d="M75.97,68.06c-6.92,0-26.35,.12-33.27,0-4.74-.09-4.99-9.16-.35-9.48,3.24-.22,6.57,0,9.81,0h23.8c.84,0,.85,1.31,0,1.31H43.8c-1.52,0-2.6,.02-3.19,1.81-.51,1.55-.35,4.71,1.73,5.05,.22,.04,.49,0,.71,0h32.92c.84,0,.85,1.31,0,1.31h0Z"/>
        </g>
      </g>
      <g>
        <g>
          <g>
            <path class="cls-18" d="M78.31,69.35v6.35c.78,0,.78,1.22,0,1.22-2.42,0-4.84,.02-7.26,.03v-8.81h7.26c.78,0,.78,1.22,0,1.22Z"/>
            <path class="cls-14" d="M78.31,69.35v6.35c.78,0,.78,1.22,0,1.22-2.42,0-4.84,.02-7.26,.03v-8.81h7.26c.78,0,.78,1.22,0,1.22Z"/>
          </g>
          <rect class="cls-18" x="72.67" y="69.36" width="5.64" height="6.34"/>
          <rect class="cls-10" x="72.67" y="69.36" width="5.64" height="6.34"/>
        </g>
        <path class="cls-18" d="M73.85,68.74h-31.15c-1.34,0-2.43,1.69-2.43,3.78s1.09,3.78,2.43,3.78h31.15v-7.57Z"/>
        <path class="cls-11" d="M73.85,68.74h-31.15c-1.34,0-2.43,1.69-2.43,3.78s1.09,3.78,2.43,3.78h31.15v-7.57Z"/>
        <path class="cls-18" d="M73.85,76.91c-6.4,0-24.41,.12-30.81,0-4.39-.08-4.62-8.49-.32-8.78,3-.21,6.08,0,9.09,0h22.04c.78,0,.78,1.22,0,1.22h-29.8c-1.4,0-2.41,.02-2.95,1.67-.47,1.43-.32,4.36,1.6,4.68,.21,.03,.45,0,.66,0h30.49c.78,0,.78,1.22,0,1.22h0Z"/>
      </g>
      <g>
        <g>
          <g>
            <path class="cls-18" d="M82.7,78.45v7.56c.93,0,.93,1.45,0,1.45-2.88,0-5.76,.02-8.64,.04v-10.49h8.64c.93,0,.93,1.45,0,1.45Z"/>
            <path class="cls-14" d="M82.7,78.45v7.56c.93,0,.93,1.45,0,1.45-2.88,0-5.76,.02-8.64,.04v-10.49h8.64c.93,0,.93,1.45,0,1.45Z"/>
          </g>
          <rect class="cls-18" x="75.99" y="78.46" width="6.71" height="7.55"/>
          <rect class="cls-10" x="75.99" y="78.46" width="6.71" height="7.55"/>
        </g>
        <path class="cls-18" d="M77.4,77.73H40.33c-1.6,0-2.9,2.02-2.9,4.5s1.3,4.5,2.9,4.5h37.07v-9Z"/>
        <path class="cls-11" d="M77.4,77.73H40.33c-1.6,0-2.9,2.02-2.9,4.5s1.3,4.5,2.9,4.5h37.07v-9Z"/>
        <path class="cls-18" d="M77.4,87.45c-7.62,0-29.04,.14-36.66,0-5.22-.09-5.5-10.1-.38-10.45,3.57-.24,7.24,0,10.82,0h26.23c.93,0,.93,1.45,0,1.45H41.94c-1.67,0-2.87,.02-3.51,1.99-.56,1.71-.38,5.19,1.91,5.57,.25,.04,.54,0,.78,0h36.28c.93,0,.93,1.45,0,1.45h0Z"/>
        <g class="cls-21">
          <path d="M77.4,87.45c-7.62,0-29.04,.14-36.66,0-5.22-.09-5.5-10.1-.38-10.45,3.57-.24,7.24,0,10.82,0h26.23c.93,0,.93,1.45,0,1.45H41.94c-1.67,0-2.87,.02-3.51,1.99-.56,1.71-.38,5.19,1.91,5.57,.25,.04,.54,0,.78,0h36.28c.93,0,.93,1.45,0,1.45h0Z"/>
        </g>
      </g>
    </g>
  </g>
  <g id="Character">
    <g>
      <g>
        <g>
          <polygon class="cls-4" points="145.97 219.65 143.3 235.73 135.56 235.75 136.57 218.79 145.97 219.65"/>
          <g>
            <path class="cls-20" d="M132.61,236.21c-.94,.11-1.93,.05-2.28-.32-.19-.22-.22-.53-.08-.78,.1-.22,.29-.4,.51-.48,1.22-.49,4.03,.7,4.15,.76,.07,.03,.11,.1,.11,.18,0,.07-.06,.14-.13,.16-.75,.23-1.51,.39-2.28,.48Zm-1.37-1.33c-.12,.01-.23,.04-.34,.08-.15,.04-.26,.15-.32,.29-.11,.24-.05,.34,.01,.39,.41,.45,2.31,.24,3.69-.1-.96-.41-2-.64-3.05-.67Z"/>
            <path class="cls-20" d="M134.86,235.73s-.05,.01-.08,0c-.95-.3-2.95-1.72-2.89-2.59,0-.21,.12-.47,.61-.58,.36-.08,.73-.01,1.03,.19,1.05,.68,1.49,2.69,1.51,2.78,.01,.06-.01,.13-.06,.17-.04,.02-.08,.03-.12,.02Zm-2.2-2.84h-.1c-.32,.07-.32,.2-.33,.25,.01,.52,1.35,1.66,2.35,2.1-.19-.84-.63-1.61-1.27-2.2-.19-.13-.42-.18-.64-.15h0Z"/>
            <path class="cls-18" d="M135.54,234.58l8.24-.96c.31-.04,.6,.15,.71,.44l2.27,6.53c.21,.58-.1,1.21-.67,1.42-.07,.03-.15,.04-.23,.05-2.97,.29-5.63,.44-9.33,.87-4.36,.51-3.19,.9-8.31,1.57-3.08,.4-4.06-3.05-2.77-3.37,5.91-1.45,6.32-3.33,8.38-5.75,.45-.47,1.07-.76,1.72-.81Z"/>
          </g>
          <polygon class="cls-1" points="144.27 229.91 135.96 228.99 136.57 218.79 145.97 219.65 144.27 229.91"/>
          <path class="cls-18" d="M188.8,136.35s-48.77,1.45-50.73,14.86c-1.96,13.41-3.66,74.27-3.66,74.27l11.35,1.37s7.04-33.82,11.13-68.28c0,0,51.84,3.15,54.35-4.1,2.51-7.26,.08-18.04,.08-18.04l-22.52-.07Z"/>
          <path class="cls-24" d="M188.8,136.35s-48.77,1.45-50.73,14.86c-1.96,13.41-3.66,74.27-3.66,74.27l11.35,1.37s7.04-33.82,11.13-68.28c0,0,51.84,3.15,54.35-4.1,2.51-7.26,.08-18.04,.08-18.04l-22.52-.07Z"/>
          <polygon class="cls-18" points="146.89 228.31 132.99 226.71 133.06 221.72 147.9 223.09 146.89 228.31"/>
          <path class="cls-25" d="M162.74,154.8c-.01,.12-.03,.24-.04,.36-.02-2.01,.05-3.69,.23-4.92,1.32-8.99,24.59-12.95,34.15-14.2l11.65,.04s2.06,9.11-.07,15.25-45.93,3.47-45.93,3.47Z"/>
        </g>
        <g>
          <polygon class="cls-4" points="173.4 220.07 173.64 237.78 165.9 238 163.99 219.37 173.4 220.07"/>
          <g>
            <path class="cls-20" d="M162.24,237.42c-1-.02-2.03-.22-2.35-.66-.17-.25-.15-.59,.03-.83,.14-.22,.36-.37,.61-.43,1.35-.34,4.12,1.31,4.24,1.38,.07,.04,.1,.12,.09,.2-.02,.08-.08,.14-.16,.15-.81,.13-1.64,.19-2.46,.18Zm-1.25-1.59c-.12,0-.25,0-.36,.04-.16,.02-.3,.12-.38,.26-.15,.23-.1,.35-.05,.42,.36,.53,2.39,.58,3.88,.42-.95-.57-2-.96-3.1-1.14Z"/>
            <path class="cls-20" d="M164.67,237.24s-.05,0-.08,0c-.95-.44-2.85-2.22-2.66-3.12,.02-.22,.19-.48,.72-.52,.38-.03,.76,.09,1.05,.34,1.01,.86,1.18,3.03,1.19,3.13,0,.07-.03,.13-.09,.17-.04,.02-.09,.02-.13,0Zm-1.9-3.29h-.11c-.34,.01-.37,.15-.38,.2-.06,.54,1.18,1.93,2.16,2.54-.08-.91-.43-1.78-1.02-2.48-.18-.16-.41-.25-.65-.25h0Z"/>
            <path class="cls-18" d="M165.54,236.13l8.76,.17c.33,0,.61,.24,.68,.56l1.45,7.16c.13,.63-.27,1.26-.91,1.39-.08,.02-.16,.03-.25,.02-3.16-.11-5.96-.34-9.9-.41-4.64-.09-3.47,.49-8.93,.47-3.29-.02-3.82-3.77-2.42-3.93,6.4-.68,7.09-2.6,9.6-4.83,.54-.43,1.23-.64,1.92-.6Z"/>
          </g>
          <path class="cls-20" d="M201.5,137.31s-43.25,3.94-45.21,17.35c-1.96,13.41,7.1,72.04,7.1,72.04l11.32,.46s1.35-39.83,.4-65.15c0,0,46.35,1.56,48.87-5.7,2.51-7.26,.04-18.94,.04-18.94l-22.52-.07Z"/>
          <path class="cls-18" d="M201.5,137.31s-43.25,3.94-45.21,17.35c-1.96,13.41,7.1,72.04,7.1,72.04l11.32,.46s1.35-39.83,.4-65.15c0,0,39.99,3.17,49.29-3.65,10.2-7.48-1.12-23.46-1.12-23.46l-21.78,2.4Z"/>
          <path class="cls-22" d="M201.5,137.31s-43.25,3.94-45.21,17.35c-1.96,13.41,7.1,72.04,7.1,72.04l11.32,.46s1.35-39.83,.4-65.15c0,0,39.99,3.17,49.29-3.65,10.2-7.48-1.12-23.46-1.12-23.46l-21.78,2.4Z"/>
          <polygon class="cls-1" points="165.15 230.31 164.72 226.09 173.48 226.52 173.53 230.5 165.15 230.31"/>
          <polygon class="cls-18" points="176.02 228.63 162.1 228.12 161.5 222.72 176.78 223.36 176.02 228.63"/>
        </g>
      </g>
      <g>
        <g id="Character--inject-2">
          <g>
            <path class="cls-16" d="M203.23,92.62c-1.2,.24-2.25,.44-3.37,.61-1.12,.17-2.18,.32-3.32,.46-2.19,.26-4.41,.43-6.7,.55-4.71,.29-9.44-.05-14.05-1.03-1.31-.31-2.59-.73-3.82-1.26-1.39-.59-2.69-1.38-3.85-2.35-5.36-4.88-5.51-20.86-5.36-21.54l5.2,.52s4.01,14.72,9.97,14.92c1.81,.29,3.65,.43,5.49,.41,1.92,.03,3.9-.06,5.9-.21,2-.15,4-.37,6.01-.59l3.01-.4c.99-.14,2.05-.29,2.9-.43l1.99,10.34Z"/>
            <path class="cls-16" d="M169.25,65.29l-.74-3.82-6.64,3.93s.98,6.58,4.21,6.04l1.41-1.39c1.23-1.27,1.87-3,1.76-4.76Z"/>
            <polygon class="cls-16" points="166.07 57.93 159.44 59.52 161.88 65.43 168.52 61.49 166.07 57.93"/>
          </g>
          <path class="cls-20" d="M211.43,92.34c3.62-6.1-.68-11.58-10.3-11.87-5.16-.24-10.32,0-15.44,.69l.5,16.53c9.31,.81,21.54,.92,25.25-5.35Z"/>
          <path class="cls-20" d="M212.18,81.69l7.99,1.12,9.33,3.58c2.91,1.11,4.72,4.04,4.41,7.14-.6,6.09-7.44,47.37-7.44,47.37h0c-8.65,.46-17.32-.36-25.73-2.44l-8.49-2.1c3.12-22.86,4.26-41.69,6.12-49.16,.74-3.01,3.39-5.16,6.49-5.25l7.32-.27Z"/>
          <path class="cls-22" d="M231.55,90.01c-6.06-2.95-9.88,11.62-10.01,23.04-.04,3.31,3.96,3.06,5.41,2.61,4.77-1.47,11.19-18.77,4.6-25.66Z"/>
          <g>
            <g>
              <path class="cls-16" d="M244.75,163.73l-6.57,4.82h0s-8.54-4.77-6.76-7.58l2.15-.69c1.9-.54,4.04-.52,6.3,.57l3.83,2.26,1.05,.61h.01Z"/>
              <path class="cls-16" d="M246.43,169.2l-2.05,1.29c-.45,.29-1.02,.33-1.51,.12l-4.7-2.05,5.51-5.44,1.05,.61h.01s2.16,3.2,2.16,3.2c.51,.76,.29,1.78-.48,2.27Z"/>
            </g>
            <path class="cls-16" d="M226.74,101.52c.06,5.86,5.03,59.35,4.65,59.69l6.49,.02s-.95-57.2-.85-61.55c.12-4.81-10.33-2.25-10.29,1.84Z"/>
          </g>
          <path class="cls-20" d="M234.76,88.17c-6.01-3.8-9.99,.74-10.57,10.31-.39,5.15-.31,10.32,.23,15.45l14.94-.4c1.05-9.27,1.54-21.47-4.6-25.36Z"/>
          <path class="cls-18" d="M225.27,85.41c-.15,1.43-1.02,2.71-2.11,3.65-1.09,.94-2.39,1.59-3.68,2.23-1.64,.81-3.54,1.64-5.22,.91-1.55-.67-2.24-1.75-2.34-3.85-2.02,1.82-2.4,2.91-3.95,2.62-1.01-.19-1.66-1.15-2.14-2.06-.86-1.6-1.2-2.47-.92-4.26,.44-2.91,3.47-4.87,6.41-5.1,3.15-.24,5.76,.23,8.82,.73,2.56,.42,5.46,2.09,5.14,5.11Z"/>
          <path class="cls-16" d="M222.43,69.99l-4.62,3.01-6.28,4.1c.27,.7,.41,1.45,.41,2.21,.06,1.68-.52,3.15-2.5,3.8-.82,.13-2.26,3.79,2.59,4.75,3.28,.75,5.64,.21,8.08-1.21,1.2-.92,1.61-1.48,1.08-3.01-1.54-4.33-.24-9.6,1.23-13.66Z"/>
          <path class="cls-22" d="M213.06,76.08l4.1-3.09c0,.13,0,.26,.01,.41-.02,.6-.08,1.19-.19,1.77-.38,2-2.93,3.98-5.02,4.54l-.03-.43c-.02-.71-.14-1.42-.35-2.1-.02-.04-.04-.08-.06-.11l1.54-1Z"/>
          <path class="cls-20" d="M211.02,65.84c-1.48-6.36-.06-9.4-2.08-13.1-1.33-1.04-4.63,1.06-4.07,6.19,.56,5.13,6.16,6.91,6.16,6.91Z"/>
          <path class="cls-16" d="M224.22,62.79c-1.31,6.62-1.79,10.55-5.62,13.42-5.78,4.35-13.56,0-14.22-6.91-.6-6.22,1.7-15.98,8.59-17.61,5.04-1.16,10.06,1.98,11.22,7.02,.31,1.34,.32,2.73,.03,4.07Z"/>
          <path class="cls-20" d="M223.53,68.52l-3.62,.28,.54-4.91-2.48-2.39,.16-6.1s5.87-.4,8.23-.13c.83,.09,3.08,2.98,3.27,4,.52,2.89-.85,5.74-3.2,7.5-.9,.67-1.87,1.26-2.9,1.74Z"/>
          <path class="cls-16" d="M226.24,68.03c-.55,1.41-1.59,2.56-2.93,3.25-1.74,.86-3.03-1-2.71-2.89,.3-1.69,1.81-3.84,3.64-3.92,1.83-.07,2.67,1.8,2,3.55Z"/>
          <path class="cls-20" d="M212.82,62.94c-.05,.56-.39,1-.76,.97-.37-.03-.58-.48-.57-1.04,.02-.56,.39-1,.76-.98,.37,.02,.62,.49,.56,1.05Z"/>
          <path class="cls-20" d="M206.39,62.29c-.05,.57-.39,1-.76,.98s-.62-.49-.57-1.04c.05-.55,.4-.99,.76-.97,.36,.02,.62,.48,.57,1.04Z"/>
          <path class="cls-7" d="M208.57,63.85c-.81,1.37-1.79,2.63-2.93,3.75,.71,.89,2.2,.71,2.2,.71l.73-4.46Z"/>
          <path class="cls-20" d="M209.56,70.97c1.31-.13,2.51-.79,3.32-1.83,.05-.07,.04-.18-.04-.23-.08-.05-.18-.03-.23,.04-.9,1.12-2.26,1.76-3.7,1.73-.09,0-.17,.06-.18,.15,0,.09,.06,.17,.15,.18,0,0,.02,0,.02,0,.22,0,.44-.01,.66-.04Z"/>
          <path class="cls-20" d="M215.04,61.73c.06,0,.11-.02,.16-.05,.15-.1,.19-.31,.09-.46-.56-.89-1.53-1.44-2.59-1.47-.18,0-.33,.15-.33,.33,0,0,0,0,0,.01,0,.18,.16,.32,.34,.32,.82,.04,1.58,.47,2.02,1.17,.06,.1,.18,.16,.3,.15Z"/>
          <path class="cls-20" d="M207.58,59.6s.06-.1,.07-.15c0-.18-.15-.33-.33-.34-1.05-.05-2.06,.44-2.68,1.3-.1,.15-.06,.36,.09,.45,.15,.1,.35,.06,.45-.09,.5-.66,1.29-1.03,2.12-.99,.12,0,.22-.07,.27-.17Z"/>
          <path class="cls-20" d="M204.62,47.48c-.91,.19-1.41,1.3-1.42,2.23,0,.93,.55,1.84,1.38,2.25,3.48,1.74,6.44,3.9,12.57,4.16,.78,.03,1.55,.12,2.32,.05,2.49-.2,4.99-.4,7.48-.61,.8-1.11,.88-2.9,.26-4.12-2.28-4.49-12.86-6.04-22.59-3.96Z"/>
        </g>
        <polygon class="cls-3" points="166.84 77.5 166.87 77.53 166.92 77.52 166.88 77.5 166.84 77.5"/>
      </g>
    </g>
  </g>
</svg>