<?xml version="1.0" encoding="utf-8"?>
<!-- Generator: Adobe Illustrator 27.0.1, SVG Export Plug-In . SVG Version: 6.00 Build 0)  -->
<svg version="1.1" id="Calque_2_00000159446756836526232780000012956737084568673683_"
	 xmlns="http://www.w3.org/2000/svg" xmlns:xlink="http://www.w3.org/1999/xlink" x="0px" y="0px" viewBox="0 0 2874.9 2000"
	 style="enable-background:new 0 0 2874.9 2000;" xml:space="preserve">
<style type="text/css">
	.st0{fill:#FFE1C7;}
	.st1{fill:#3C8F7C;}
	.st2{fill:#F8A492;}
	.st3{fill:#355389;}
	.st4{fill:#FE875E;}
	.st5{fill:#F7A491;}
	.st6{fill:#F7CC7F;}
	.st7{fill:#466EB6;}
	.st8{fill:#F47458;}
	.st9{fill:#13375B;}
	.st10{fill:#5E5E5E;}
	.st11{fill:#B75742;}
	.st12{fill:#EBB960;}
	.st13{fill:#D95A3F;}
	.st14{fill:#50BFA5;}
	.st15{fill:#F08E76;}
	.st16{fill:#133742;}
	.st17{fill:#F7947E;}
	.st18{fill:#AB4B37;}
	.st19{fill:#733021;}
	.st20{fill:#184655;}
</style>
<g>
	<path class="st0" d="M307.4,1809.9c-105.2-58.7-140.9-262.2-56.8-511.4c62.1-184.2-33.9-347.8-26.7-563.8
		c21-635.1,1244.6-752.6,1918.1-426.6c619.4,299.8,655.3,1154.3,409.4,1501.8H307.4z"/>
	<path class="st1" d="M198,1808.8l2436.9,2.3c5.9,0,10.6,5.2,10.6,11.6l0,0c0,6.4-4.8,11.6-10.6,11.6L198,1832
		c-5.9,0-10.6-5.2-10.6-11.6l0,0C187.4,1814,192.2,1808.8,198,1808.8z"/>
</g>
<g>
	<g>
		<g>
			<path class="st2" d="M1651.7,835.2c27,4.4,25.4,8.8,28.9,9.2c4.1,0.5,52.8-23.9,52.8-23.9s144.2-71.2,151.8-75.3l104.1-130.9
				l80.2,37c0,0-117,139.2-124.4,145.3c-7.4,6.1-214.1,78.6-232.1,85.6c0,0-18.1,16.6-29.8,26.6c-11.7,10-27.4,14-31.2,16.2
				c-0.6,0.3-13.5,7.2-31.8,11.1c-15.8,3.4-2.6-7.3-2.6-7.3s27.9-11.8,26.5-13.9c-1.1-1.6-15.9,5.7-33.2,9.7c-4.5,1-8.9,2-12.9,2.9
				c-10.7,2.3-15.4-3.8-4.6-8c3.8-1.5,10.1-3.8,14.9-4.8c5.2-1.1,9.5-3.8,13.7-5.4c8.3-3.2,14.4-5.4,14.1-5.6
				c-0.4-0.4,0.7-2.2-4-1.3c-5.8,1.1-17.3,6.3-25.9,7.3c-4.9,0.5-15,2.3-15,2.3s-17.9,1.7-18-0.8c-0.3-5.5,10.7-8.5,17.5-8.4
				c4.3-2.2,15-3.8,15-3.8s20.7-8.2,19.5-11.3c-0.5-1.2-13,0.7-26.4,1.6c-14.1,1-24.3,1-25-1.8c-1.2-4.3,10-6,10-6s9.9-1.4,13.1-2.2
				c3.8-0.9,14.9-4.3,14.9-4.3s38.2-14,36.8-16.8s-7.7-8.7-10.4-8.7s-7.5,2.7-10.2,2.7c-2.7,0-8.5-0.5-8.9-3.9
				c-0.4-3.4,14.5-10.4,14.5-10.4S1643.9,833.9,1651.7,835.2L1651.7,835.2z"/>
			<path class="st3" d="M1916.8,695.4c0,0,26,23.6,36.8,31.3c9,6.5,52.7,27.5,52.7,27.5s43.5-66.6,62.5-100
				c23.1-40.5,39.1-100.8,33.6-102.5c-15.3-4.6-36.4-7.4-55.8,1.5C1979.3,584.2,1916.8,695.4,1916.8,695.4L1916.8,695.4z"/>
			<path class="st4" d="M1676.9,870c-11.6,1.8-23.4-0.4-28.5-11C1647.2,871.6,1666.2,877.8,1676.9,870z"/>
		</g>
		<path class="st5" d="M2342.9,1718c0,0,2.9,51,2.9,51.1c1.1,6.5,5.2,22.5,5.2,28.4c0,22.1-98.1-18.8-76.1-28.6
			c2-0.9,12.4-7.6,13.1-15.1c1-11.6,3.6-35.1,3.6-35.1L2342.9,1718L2342.9,1718z"/>
		<path class="st6" d="M2273.9,1769.1c0,0,23,6.8,34.8,8.5s27.4-12.6,35.7-8.7c9.2,4.2,8.8,42.3,8.8,42.3s-123.6,10.8-158.3-0.4
			C2181.2,1806.4,2226.8,1784.9,2273.9,1769.1L2273.9,1769.1z"/>
		<path class="st5" d="M2506.3,1719.5c0,0,2.9,51,2.9,51.1c1.1,6.5,5.2,22.5,5.2,28.4c0,22.1-98.1-18.8-76.1-28.6
			c2-0.9,15.5-12.6,16.2-20.1c1-11.6,0.5-30.1,0.5-30.1L2506.3,1719.5L2506.3,1719.5z"/>
		<path class="st6" d="M2438.5,1770.2c0,0,23,6.8,34.8,8.5s27.4-12.6,35.7-8.7c9.2,4.2,9.6,42.3,9.6,42.3s-122.7,5-159-0.4
			C2345.3,1809.8,2391.4,1785.9,2438.5,1770.2L2438.5,1770.2z"/>
		<path class="st3" d="M2477.2,903.8c0,0,16.6,86.1,9.9,151.3c-6.8,65.2-7.3,297.1-7.3,297.1l31.3,370.8l-66.8,1.6
			c0,0-72.8-370.7-71.4-361.2c1.4,9.5-24.4-261-24.4-261l86.8-206.6L2477.2,903.8L2477.2,903.8z"/>
		<path class="st7" d="M2453.9,848.2c0,0,75.3,79.4,47.3,166c-11.3,34.8-116.3,367.4-117.6,394.6c-1.4,27.2-35.5,327.7-35.5,327.7
			l-71.4-2.2l-15.4-334.1l20.4-450.2l43.3-75.9L2453.9,848.2L2453.9,848.2z"/>
		<path class="st8" d="M1996.5,589.9c24.7-27.5,78.4-66.7,78.4-66.7s32-27.3,45-31.8c19.2-6.6,52.1-24.3,99.6,47.8
			c34,51.6,248.8,318.6,284,327.6l-230.2,110.1c-6.3-52.6-120.1-152-136.4-170.5C2100.3,765,1973.1,616,1996.5,589.9L1996.5,589.9z"
			/>
		<path class="st5" d="M2007.2,478l71.7,42c0,0,2,61.2-21.4,77.1c-19.7,13.3-34.6-18.7-34.6-18.7s-26.7-37-46.9-48.5
			S2007.2,478,2007.2,478L2007.2,478z"/>
		<path class="st8" d="M2019.3,504.9c-2.7,12.8-8.9,31.2-18.6,46.4c-7.9-8.5-16.8-16.9-24.7-21.4c-9.3-5.3-3.4-16.8,5.7-27.6
			c12.9-13.4,25.6-24.4,25.6-24.4l13.8,8.1C2021.9,491.3,2020.2,500.7,2019.3,504.9L2019.3,504.9z"/>
		<path class="st5" d="M1969.9,372.8c1.2-1.5,60.2,71.9,52.9,106.3s-42.9,65.8-67.7,57.2c-27.4-9.5-78.3-95.9-60.1-137.9
			C1913.3,356.5,1969.9,372.8,1969.9,372.8L1969.9,372.8z"/>
		<path class="st9" d="M1905.3,349.6c25.7-14.3,67.6-18.4,98.9-2c38.5,20.2,47.3,70.9,35.2,101.8s1.8,48.4,1.8,48.4l-20.4-11.9
			c0,0-11.9-18.6-13.5-33.5c-1.6-14.8-23.2-12.2-33.8-19c-8.1-5.2-18.5-22-31.7-30.8c0,0-33.2-4.1-49.5,5.1
			C1864.6,423.5,1868.5,370.1,1905.3,349.6L1905.3,349.6z"/>
		<path class="st5" d="M1990.1,445.9c-0.2,11,5,20,11.6,20.1s12.1-8.7,12.3-19.7c0.2-11-5-20-11.6-20.1S1990.3,434.9,1990.1,445.9z"
			/>
	</g>
	<g>
		<path class="st10" d="M1587,893.9h-100.8c-5.4,0-9.8-4.4-9.8-9.8l0,0c0-5.4,4.4-9.8,9.8-9.8H1587c5.4,0,9.8,4.4,9.8,9.8l0,0
			C1596.8,889.5,1592.4,893.9,1587,893.9z"/>
		<path class="st10" d="M1587,1002.9h-100.8c-5.4,0-9.8-4.4-9.8-9.8l0,0c0-5.4,4.4-9.8,9.8-9.8H1587c5.4,0,9.8,4.4,9.8,9.8l0,0
			C1596.8,998.5,1592.4,1002.9,1587,1002.9z"/>
		<rect x="1601.6" y="849.7" class="st8" width="77.4" height="177.8"/>
		<polygon class="st11" points="1679.1,1027.5 1748.6,963.7 1748.6,913.5 1679.1,849.7 		"/>
		<path class="st6" d="M1849.7,953.7l-101.1,9.3v-49.5l101.1,9.3c2.4,0.2,4.2,2.2,4.2,4.6v21.6
			C1853.9,951.5,1852.1,953.5,1849.7,953.7L1849.7,953.7z"/>
		<rect x="1853.9" y="927.7" class="st12" width="1021" height="21.5"/>
		<g>
			<polygon class="st12" points="1831,955.4 1831,921.1 1841.3,922 1841.3,954.5 			"/>
			<polygon class="st12" points="1807.8,919 1818.1,919.9 1818.1,956.6 1807.8,957.5 			"/>
			<polygon class="st12" points="1784.7,916.8 1794.9,917.8 1794.9,958.7 1784.7,959.7 			"/>
			<polygon class="st12" points="1761.5,914.7 1771.8,915.7 1771.8,960.8 1761.5,961.8 			"/>
		</g>
		<polygon class="st11" points="1588.4,1035.1 1601.7,1027.5 1601.7,849.7 1588.4,842.2 		"/>
		<rect x="1562.6" y="842.2" class="st8" width="25.8" height="192.9"/>
		<path class="st13" d="M1628.8,976.8L1628.8,976.8c-2.8,0-5-2.2-5-5v-66.4c0-2.8,2.2-5,5-5l0,0c2.8,0,5,2.2,5,5v66.4
			C1633.8,974.6,1631.5,976.8,1628.8,976.8z"/>
		<path class="st13" d="M1648.8,976.8L1648.8,976.8c-2.8,0-5-2.2-5-5v-66.4c0-2.8,2.2-5,5-5l0,0c2.8,0,5,2.2,5,5v66.4
			C1653.8,974.6,1651.6,976.8,1648.8,976.8z"/>
		<path class="st13" d="M1668.9,976.8L1668.9,976.8c-2.8,0-5-2.2-5-5v-66.4c0-2.8,2.2-5,5-5l0,0c2.8,0,5,2.2,5,5v66.4
			C1673.9,974.6,1671.7,976.8,1668.9,976.8z"/>
	</g>
	<path class="st2" d="M1851.4,968.5c7.8-11.4,11.2-27.9,22-40.5c3.6-4.2,9.4-9,16-13.7c52-30.4,187.4-108.8,192.7-114.9
		c6.2-7.2,98.7-160.8,98.7-160.8l-83-18.8l-81.1,143.3c-6.8,5.4-135.6,100.6-135.6,100.6s-25.6,20-39.6,29.4
		c-7.1,4.1-13.9,6.8-19.9,8.9c-7.6,2.6-21.9,9.8-24.9,12.4c-3.4,3-10.2,9.3-14.2,13.2c-4,3.9-8.9,8.3-10.8,10.6
		c-1.1,1.4-4.7,3.3-7.3,4.7c-3.9,1.9-3.4,7.7,0.8,8.9c3.9,1.1,9.3-1.4,12.6-2.9c9.3-4.4,20.7-16.2,21.3-14.8
		c0.6,1.5-11,26.8-12.1,29.8c-1.1,3-14.4,32.5-15.1,39.1c-0.7,6.6,3.3,8.1,6.2,5.7c2.5-2.1,23.9-41.5,23.9-41.5s2.7-5,3.8-2.2
		c1.1,2.9-18.3,38.7-20.2,44.6c-1.9,5.9-0.4,10.7,5.1,8.6c6.6-2.5,24.9-42,24.9-42s2.4-4.9,4-3.2c1.6,1.7-15.3,31.9-15.5,35.4
		c-0.2,3.5,2.9,6.9,7.5,4c5.4-3.4,21.4-38.9,21.4-38.9s2-2.3,2.6-0.7c0.6,1.7-12,28.5-11.1,32.4c0.8,3.3,3.8,2.6,3.8,2.6
		C1834.9,1007.7,1843.6,980,1851.4,968.5L1851.4,968.5z"/>
	<path class="st3" d="M2158,719.8c0,0-27-8.6-44.4-16.5c-11.6-5.3-62.3-30.5-62.3-30.5s21.8-92.1,36.6-125.3
		c54.2-121.6,115.8-37.7,124.1-18.2C2230.8,572.9,2158,719.8,2158,719.8z"/>
	<g>
		<path class="st5" d="M615.9,1758.3c-1.5-10.9,1.9-29.8,10.5-59.3c-16.9,0-31.2-7.5-48.5-7.2c-4.7,27.7-12,73.2-12,73.2l-0.8,36
			l120.5,0.9c0,0-1,0.5-36.5-22C646.4,1778.3,617.4,1768.9,615.9,1758.3L615.9,1758.3z"/>
		<g>
			<path class="st5" d="M464.4,1759.8c-1.5-10.9-4.1-24.7-0.3-61.2c-16.9,0-33-3.2-50.4-2.9c0,28.5,0.6,70.8,0.6,70.8l-0.8,36
				l120.5,0.9c0,0-1,0.5-36.5-22C494.9,1779.8,465.9,1770.4,464.4,1759.8L464.4,1759.8z"/>
			<path class="st14" d="M413,1811.7h124.4c4.6-0.4,5.7-4.2,4.1-6.5c-3.3-4.8-27.5-16.2-43.9-23.9c-28.6,3-78.9-8.8-83.4-15.4
				C406.4,1788,410.4,1811.2,413,1811.7L413,1811.7z"/>
			<path class="st14" d="M564.6,1810.3H689c4.6-0.4,5.7-4.2,4.1-6.5c-3.3-4.8-27.5-16.2-43.8-23.9c-28.6,3-78.9-8.8-83.4-15.4
				C558,1786.5,562,1809.8,564.6,1810.3L564.6,1810.3z"/>
		</g>
		<path class="st11" d="M581.3,979.2l-36.8,20.6l-74.7,114.5l133.6,315.4c0,0-15,47.4-20,71.1c-5.1,24.8-17.7,237.6-17.7,237.6l57,1
			c0,0,54.1-226.5,63.3-300c11.1-89.3-56.7-301.9-56.7-301.9c-12.6-43.4-39.9-132.6-39.9-132.6S582.8,982.9,581.3,979.2L581.3,979.2
			z"/>
		<path class="st8" d="M460.5,948.8c0,0-8.6,18.4-23.8,49.2c-9.3,18.7-25.3,33.4-36.7,56.4c-21.7,43.4-32,89-20,140.7
			c0,0,44.8,171.7,43.1,234.5c-0.7,23.1-8.6,64.8-13.6,93c-4.5,24.9-2.9,209.8-2.9,209.8l60.6,1.2l48.7-303.2l36.4-268.8l40.5-150.8
			L460.5,948.8L460.5,948.8z"/>
		<path class="st9" d="M734,664.2c29.5-35.6,36.8-80.8,65.3-117.5c10.6-13.5,31.3-29.5,46.5-37.3c68-34.9,133,16.8,144,88.7
			c5.9,38.3,5,86.8-6.1,136.7c-10.7,0.1-21-0.2-31-0.6l-5.1-32.4l-6.7,31.5c-59-5.7-120.5-21.1-155.4-37.8l6.3-30.6l-18.4,24.5
			C758,681,744.9,672.4,734,664.2L734,664.2z"/>
		<path class="st15" d="M795.2,749.2c0,0,128.5,78.9,159.3,90.8c24.1,9.3,147.9,40.9,152.4,42.2c4.5,1.2,52.2-35.5,54.8-28.4
			s-25.4,17.5-21,24.9c4.4,7.4,77,23.9,74,28.6c-5.5,8.8-44.8-8.4-46.6-3.8c-1.8,4.6,42.7,14.2,42.5,22.8
			c-0.2,8.7-41.3-13-44.3-10.3c-3.1,2.7,35.9,25.5,28.8,30.8c-3.8,2.9-34.2-21.1-36.1-15.8c-1.9,5.3,18.4,27.2,13.7,30.1
			s-14.6-20.6-29.1-26.7c-14.5-6-21.9-17.8-47.7-20.8c-25.8-3-117.9-2.8-166.6-25c-48.7-22.3-152.4-65.7-152.4-65.7L795.2,749.2
			L795.2,749.2z"/>
		<path class="st16" d="M825.5,850.5c0,0-91.2-38.2-115.5-59.8c-24.4-21.6-27.8-70.3-3.6-86.2c24.2-15.9,153.3,77.4,153.3,77.4
			L825.5,850.5L825.5,850.5z"/>
		<path class="st5" d="M832.7,635.1c0,0-14.8-9.4-15.5-9.9c-0.7-0.5-9.4,10.4-10.3,12.3s-3.4,18.9-1.3,19.8s13,6.5,14,5.4
			S832.7,635.2,832.7,635.1L832.7,635.1z"/>
		<path class="st5" d="M759.6,662.1c0,0,53.4-8,74.8-30.7l19.1,47.2c0,0-32.5,26.2-35.4,43.1s-5,73.5-5,73.5l-28.5-15.5
			c0,0-32.6-71.4-31.6-79.9C754.1,691.2,759.6,662.1,759.6,662.1L759.6,662.1z"/>
		<path class="st7" d="M759.6,662.1c0,0-60.4-9.7-138.9,47.7C542.2,767.2,442.4,930,410,1029.1c0,0,143.3,24.4,194.7,11
			c0,0-5.9-54.9,8.6-75.1s21.5-60.1,66.3-76c19.1-6.8,40.4-7.7,60.6-10.3c36.4-4.7,65.6-32.5,71.9-68.7l0.4-2.1
			c1.7-9.6,0.6-19.5-3.2-28.6L759.6,662.1L759.6,662.1z"/>
		<path class="st8" d="M836.6,694.1c-6.5-17.8-5.6-56.8-5.6-56.8l0.8-3.4c0.9-0.8,1.8-1.7,2.7-2.6l19.1,47.2
			C853.5,678.6,845.2,685.3,836.6,694.1L836.6,694.1z"/>
		<path class="st5" d="M894.7,533.9c0,0-28-3.2-45.5,19.5s-36.4,93,7.1,131.2s86.6-5,93-50.9C955.6,587.8,958.1,532.2,894.7,533.9z"
			/>
		<path class="st5" d="M962.2,633c-5.2,10.1-13.9,15.7-19.5,12.5c-5.6-3.2-5.9-14-0.7-24.2s13.9-15.7,19.5-12.5
			C967.1,612,967.4,622.9,962.2,633L962.2,633z"/>
		<path class="st9" d="M897.8,526.3c0,0-37.4,66.8-64.1,69.9c-26.7,3.1-30.2,38.6-30.2,38.6s9.6-81.8,36-97.6
			C866,521.5,897.8,526.3,897.8,526.3L897.8,526.3z"/>
		<path class="st5" d="M840.7,613.1c2.2,11.9-2.2,22.8-9.8,24.3s-15.5-6.8-17.6-18.7c-2.2-11.9,2.2-22.8,9.8-24.3
			C830.6,592.8,838.5,601.2,840.7,613.1L840.7,613.1z"/>
		<path class="st9" d="M772.3,594.2c17.5-33.8,25.7-22,24.6-17.3c-1.1,4.7-5.3,50.4-4.1,50.3c1.2-0.1,25.9-11.3,25.9-11.3l0.8,16.5
			c0,0-12.8,40.2-6.2,66.9c0,0-25.2,0.7-49.9-11.5l1.6-20.8l-12.8,14.3c-6.5-4.5-12.8-10.1-18.1-17C734,664.2,754.7,628,772.3,594.2
			L772.3,594.2z"/>
		<g>
			<rect y="962.5" class="st12" width="1076.8" height="21.5"/>
			<path class="st11" d="M1074.2,837.9h200.3c11.6,0,21,9.4,21,21v228.7c0,11.6-9.4,21-21,21h-200.3c-11.6,0-21-9.4-21-21V858.9
				C1053.2,847.3,1062.6,837.9,1074.2,837.9z"/>
			<g>
				<path class="st8" d="M1169.2,837.9h200.3c11.6,0,21,9.4,21,21v228.7c0,11.6-9.4,21-21,21h-200.3c-11.6,0-21-9.4-21-21V858.9
					C1148.2,847.3,1157.6,837.9,1169.2,837.9z"/>
				<ellipse class="st17" cx="1271.7" cy="973.2" rx="80.5" ry="102.1"/>
				<path class="st18" d="M1271.7,871.1c-2.7,0-5.4,0.2-8,0.5c40.7,5.1,72.5,48.6,72.5,101.6c0,53-31.8,96.5-72.5,101.6
					c2.6,0.3,5.3,0.5,8,0.5c44.5,0,80.5-45.7,80.5-102.1S1316.2,871.1,1271.7,871.1L1271.7,871.1z"/>
				<path class="st18" d="M1281.5,918.7c0,5.4-4.4,9.8-9.8,9.8s-9.8-4.4-9.8-9.8s4.4-9.8,9.8-9.8S1281.5,913.3,1281.5,918.7z"/>
				<path class="st18" d="M1281.5,1027.7c0,5.4-4.4,9.8-9.8,9.8s-9.8-4.4-9.8-9.8s4.4-9.8,9.8-9.8S1281.5,1022.3,1281.5,1027.7z"/>
				<path class="st19" d="M1266.8,910.3c-2.9,1.7-4.9,4.8-4.9,8.4s2,6.7,4.9,8.4c2.9-1.7,4.9-4.8,4.9-8.4S1269.7,912,1266.8,910.3z"
					/>
				<path class="st19" d="M1266.8,1019.2c-2.9,1.7-4.9,4.8-4.9,8.4s2,6.7,4.9,8.4c2.9-1.7,4.9-4.8,4.9-8.4
					S1269.7,1020.9,1266.8,1019.2L1266.8,1019.2z"/>
			</g>
		</g>
		<path class="st5" d="M789.3,782.8c0,0,111.6,104.5,139.9,122.6c22.1,14.1,138.7,70.8,142.9,72.9c4.2,2.1,59.1-24.7,60.3-17.1
			c1.2,7.5-28.8,12.2-25.9,20.5c2.9,8.2,71.6,39.4,67.8,43.4c-7.2,7.6-42.8-17.5-45.5-13.3s39.5,22.7,37.5,31.3
			c-2,8.6-38.4-21.3-41.9-19.2s30.5,32.6,22.4,36.5c-4.4,2.1-29.7-27.9-32.6-23.1c-3,4.8,12.8,30.8,7.5,32.7
			c-5.3,1.9-10.3-23.5-23.5-32.4c-13.2-9-18.1-22.2-43.2-30.4c-25.1-8.2-116.6-26.7-160.5-58.8c-43.8-32-138.1-96.2-138.1-96.2
			L789.3,782.8L789.3,782.8z"/>
		<path class="st20" d="M838.2,815l-58.7,65.5c0,0-62.9-44.5-88-70.1c-55.4-56.7-21.3-134.1,33-99.1
			C764.5,737.2,838.2,815,838.2,815L838.2,815z"/>
	</g>
</g>
</svg>
